<svg xmlns="http://www.w3.org/2000/svg" version="1.1" xmlns:xlink="http://www.w3.org/1999/xlink" width="512" height="512" x="0" y="0" viewBox="0 0 512 512" style="enable-background:new 0 0 512 512" xml:space="preserve" class=""><g><path d="M489.307 275.837c-13.708-17.09-32.682-29.439-53.795-35.102l-13.263-33.157 18.862-26.407c13.961-19.547 21.341-42.574 21.341-66.596C462.452 51.398 411.053 0 347.877 0c-29.082 0-57.633 5.178-84.862 15.389l-13.376 5.016a28.947 28.947 0 0 0-14.514-3.889h-26.669c-23.874 0-43.295 19.421-43.295 43.294 0 2.357.196 4.681.564 6.964l-.547.365a37.055 37.055 0 0 0-16.533 30.892c0 18.945 14.199 34.809 33.027 36.901l35.237 3.915c.346 1.088.719 2.17 1.147 3.237l2.909 7.271c-3.934 3.447-6.255 8.431-6.255 13.844 0 2.359.445 4.665 1.319 6.85l13.513 33.785c2.644 6.606 8.949 10.876 16.065 10.876.491 0 .982-.029 1.471-.07l3.592 8.981c9.875 24.685 33.436 40.637 60.023 40.637h4.531c13.76 0 26.862-4.269 37.797-12.183l15.246 25.41c-13.821 17.967-21.429 40.214-21.429 62.908v72.51h-66.065c-.283 0-.559.028-.839.042.55-2.682.839-5.459.839-8.3 0-77.382-56.375-143.274-132.129-155.801v-1.102c0-1.681-.084-3.34-.207-4.989l54.443-18.148a17.28 17.28 0 0 0 11.829-16.412c0-2.21-.416-4.371-1.238-6.425l-13.596-33.99c-2.643-6.606-8.947-10.875-16.062-10.875h-.219a17.18 17.18 0 0 0-7.026 1.491l-66.213 29.428a65.648 65.648 0 0 0-27.776-6.144c-30.417 0-56.776 21.017-64.059 49.928-5.12 1.083-9.509 4.42-11.919 9.241l-4.764 9.528A17.495 17.495 0 0 0 0 258.159a17.352 17.352 0 0 0 6.338 13.439l-5.099 12.75A17.202 17.202 0 0 0 0 290.775v.926c0 6.596 3.665 12.525 9.565 15.476l9.605 4.802a17.389 17.389 0 0 0 7.74 1.828 17.34 17.34 0 0 0 6.658-1.328 17.189 17.189 0 0 0 9.029 11.213l9.605 4.802a17.389 17.389 0 0 0 7.74 1.828c2.342 0 4.593-.471 6.658-1.327a17.189 17.189 0 0 0 9.029 11.213l9.605 4.802a17.389 17.389 0 0 0 7.74 1.828c7.116 0 13.421-4.269 16.065-10.877l9.841-24.603a17.268 17.268 0 0 0 5.294-4.914l5.439.544c33.467 3.348 61.963 25.498 73.837 56.365H16.516C7.41 363.355 0 370.764 0 379.871v16.516c0 9.107 7.41 16.516 16.516 16.516h182.508c2.052 10.068 7.779 18.815 15.714 24.774-7.935 5.959-13.662 14.707-15.714 24.774h-66.895v-16.516c0-9.107-7.41-16.516-16.516-16.516H66.065c-9.107 0-16.516 7.41-16.516 16.516v16.516H16.516C7.41 462.452 0 469.861 0 478.968v16.516C0 504.59 7.41 512 16.516 512H512V340.393c0-23.387-8.06-46.313-22.693-64.556zM165.161 98.031a20.558 20.558 0 0 1 6.653-15.155 43.616 43.616 0 0 0 6.027 7.548l6.254 6.254L195.775 85l-6.254-6.254c-5.058-5.058-7.843-11.783-7.843-18.936 0-14.764 12.013-26.778 26.778-26.778h26.669c6.957 0 12.617 5.66 12.617 12.617 0 6.703-5.453 12.157-12.157 12.157-4.634 0-8.8-2.574-10.873-6.721l-2.616-5.23-14.773 7.387 2.616 5.229c4.887 9.778 14.715 15.851 25.645 15.851 15.81 0 28.673-12.863 28.673-28.673 0-4.315-.95-8.41-2.641-12.097l7.197-2.699a224.41 224.41 0 0 1 79.063-14.337c54.07 0 98.058 43.989 98.058 98.058 0 20.558-6.315 40.267-18.265 56.996l-18.383 25.736c-17.994-3.641-33.367-14.205-43.149-29.416 8.62-6.976 13.733-17.481 13.733-28.914a37.464 37.464 0 0 0-3.935-16.667l-.349-.698A17.956 17.956 0 0 0 379.87 110v-.365c0-2.769-.654-5.54-1.893-8.017l-4.565-9.131c-3.058-6.113-9.201-9.91-16.034-9.91-2.769 0-5.54.654-8.018 1.893l-11.215 5.607c-8.366-9.856-20.777-15.756-33.938-15.756h-.349c-5.353 0-10.607.953-15.621 2.833l-56.406 21.152c-1.397.523-2.861.79-4.354.79a12.336 12.336 0 0 1-11.094-6.857l-2.548-5.095-14.773 7.387 2.548 5.095c3.147 6.294 8.328 11.055 14.528 13.685a47.075 47.075 0 0 0-1.351 8.682l-31.293-3.477a20.59 20.59 0 0 1-18.333-20.485zm70.399 43.343-2.169-5.423a30.126 30.126 0 0 1-2.166-11.242c0-3.254.547-6.506 1.577-9.596a28.89 28.89 0 0 0 4.83-1.342l56.405-21.151a27.86 27.86 0 0 1 9.823-1.782h.349c6.876 0 13.431 2.558 18.469 6.977l-87.118 43.559zm-4.197 22.539a1.912 1.912 0 0 1-.137-.713c0-.736.409-1.398 1.066-1.726l124.456-62.228a1.408 1.408 0 0 1 1.892.629l4.565 9.131c.098.194.15.413.15.63v.365c0 .505-.273.974-.71 1.225l-57.096 32.625v4.793c0 12.133-6.742 23.041-17.594 28.468l-41.999 20.999a.808.808 0 0 1-1.079-.412l-13.514-33.786zm117.894 69.731c-9.091 9.091-21.178 14.098-34.034 14.098h-4.531c-19.796 0-37.337-11.876-44.689-30.257l-3.645-9.111 32.982-16.49c14.997-7.499 24.826-21.892 26.475-38.306l39.859-22.776a20.861 20.861 0 0 1 1.678 8.174c0 7.909-4.395 15.02-11.469 18.558l-7.868 3.935 3.693 7.386c11.645 23.289 32.966 39.574 58.497 44.679l.69.138 11.423 28.559a103.734 103.734 0 0 0-38.429 22.526l-23.156-38.592-7.476 7.479zM297.29 429.419v66.065h-16.516v-66.065h16.516zM183.283 173.484a.791.791 0 0 1 .314-.065h.219c.322 0 .607.194.727.492l13.596 33.99a.783.783 0 0 1-.48 1.034l-14.479 4.827-14.484-33.794 14.587-6.484zM153.6 186.677l13.854 32.326-22.348 7.45a66.246 66.246 0 0 0-18.395-27.825l26.889-11.951zm-71.019 11.517c27.322 0 49.548 22.227 49.548 49.548H66.066l-31.291-13.037c5.78-21.2 25.316-36.511 47.806-36.511zM16.61 257.762l4.764-9.528a.885.885 0 0 1 .796-.492h.775c.118 0 .233.023.341.067l91.78 38.242a.887.887 0 0 1 .453 1.219l-4.764 9.528a.885.885 0 0 1-.796.492h-.775a.892.892 0 0 1-.342-.068l-91.779-38.241a.887.887 0 0 1-.453-1.219zm9.948 39.446-9.606-4.803a.782.782 0 0 1-.436-.704v-.926c0-.1.02-.198.057-.292l4.736-11.84 11.651 4.855-5.32 13.299a.804.804 0 0 1-1.082.411zm33.032 16.516-9.606-4.803a.782.782 0 0 1-.436-.704v-.926c0-.1.02-.198.057-.292l5.679-14.2 11.651 4.855-6.264 15.658a.802.802 0 0 1-1.081.412zm33.032 16.516-9.606-4.803a.782.782 0 0 1-.436-.704v-.926c0-.1.02-.198.057-.292l6.624-16.559 11.65 4.854-7.207 18.018a.803.803 0 0 1-1.082.412zm39.093-39.629a17.359 17.359 0 0 0-10.297-19.805l-15.714-6.548h34.167l.512.065c58.296 7.287 104.754 49.667 119.195 104.27a41.018 41.018 0 0 0-20.094-5.239h-18.556c-12.543-39.544-47.597-68.397-89.213-72.743zm-115.199 89.26h189.958a41.13 41.13 0 0 0-7.45 16.516H16.516v-16.516zm198.194 24.774c0-13.66 11.114-24.774 24.774-24.774s24.774 11.114 24.774 24.774-11.114 24.774-24.774 24.774-24.774-11.114-24.774-24.774zm-148.645 41.29h49.548v16.516H66.065v-16.516zm-49.549 33.033h182.508a41.124 41.124 0 0 0 7.45 16.516H16.516v-16.516zm198.194-8.258c0-13.66 11.114-24.774 24.774-24.774h24.774v49.548h-24.774c-13.66 0-24.774-11.114-24.774-24.774zm280.774 24.774h-44.196c16.867-13.636 27.68-34.477 27.68-57.806V325.484c0-9.737-3.791-18.891-10.677-25.777l-11.679 11.679a19.802 19.802 0 0 1 5.84 14.097v112.194c0 31.875-25.931 57.806-57.806 57.806h-90.839v-66.065h87.419a19.804 19.804 0 0 1 14.097 5.84l11.679-11.679c-6.885-6.885-16.039-10.677-25.777-10.677h-4.837V353.7c0-26.817 14.285-52.047 37.281-65.845l-8.498-14.164c-27.942 16.767-45.3 47.424-45.3 80.008v59.203h-16.516v-72.51c0-40.309 27.076-74.642 66.065-84.152 38.988 9.51 66.065 43.843 66.065 84.152v155.092z" fill="#ffffff" opacity="1" data-original="#000000" class=""></path><circle cx="239.484" cy="404.645" r="8.258" fill="#ffffff" opacity="1" data-original="#000000" class=""></circle></g></svg>