<?xml version="1.0" encoding="iso-8859-1"?>
<!-- Uploaded to: SVG Repo, www.svgrepo.com, Generator: SVG Repo Mixer Tools -->
<svg fill="#000000" height="800px" width="800px" version="1.1" id="Layer_1" xmlns="http://www.w3.org/2000/svg" xmlns:xlink="http://www.w3.org/1999/xlink" 
	 viewBox="0 0 512 512" xml:space="preserve">
<g>
	<g>
		<path d="M322.783,133.565H189.217c-9.22,0-16.696,7.475-16.696,16.696v77.913c0,9.22,7.475,16.696,16.696,16.696h133.565
			c9.22,0,16.696-7.475,16.696-16.696v-77.913C339.478,141.04,332.003,133.565,322.783,133.565z M306.087,211.478H205.913v-44.522
			h100.174V211.478z"/>
	</g>
</g>
<g>
	<g>
		<path d="M372.87,69.654V16.696C372.87,7.475,365.394,0,356.174,0c-9.22,0-16.696,7.475-16.696,16.696v50.087H155.826
			c-27.618,0-50.087,22.469-50.087,50.087v345.043c0,27.618,22.469,50.087,50.087,50.087h200.348
			c27.618,0,50.087-22.469,50.087-50.087V116.87C406.261,95.104,392.302,76.546,372.87,69.654z M372.87,461.913
			c0,9.206-7.49,16.696-16.696,16.696H155.826c-9.206,0-16.696-7.49-16.696-16.696V116.87c0-9.206,7.49-16.696,16.696-16.696
			h200.348c9.206,0,16.696,7.49,16.696,16.696V461.913z"/>
	</g>
</g>
<g>
	<g>
		<circle cx="189.217" cy="294.956" r="16.696"/>
	</g>
</g>
<g>
	<g>
		<circle cx="256" cy="294.956" r="16.696"/>
	</g>
</g>
<g>
	<g>
		<circle cx="322.783" cy="294.956" r="16.696"/>
	</g>
</g>
<g>
	<g>
		<circle cx="189.217" cy="361.739" r="16.696"/>
	</g>
</g>
<g>
	<g>
		<circle cx="256" cy="361.739" r="16.696"/>
	</g>
</g>
<g>
	<g>
		<circle cx="322.783" cy="361.739" r="16.696"/>
	</g>
</g>
<g>
	<g>
		<circle cx="189.217" cy="428.522" r="16.696"/>
	</g>
</g>
<g>
	<g>
		<circle cx="256" cy="428.522" r="16.696"/>
	</g>
</g>
<g>
	<g>
		<circle cx="322.783" cy="428.522" r="16.696"/>
	</g>
</g>
</svg>