<svg width="62" height="62" viewBox="0 0 62 62" fill="none" xmlns="http://www.w3.org/2000/svg">
<path d="M31.0001 58.7708C23.6348 58.7708 16.5712 55.845 11.3631 50.6369C6.1551 45.4289 3.22925 38.3653 3.22925 31C3.22925 23.6347 6.1551 16.5711 11.3631 11.3631C16.5712 6.15502 23.6348 3.22917 31.0001 3.22917C35.3279 3.21484 39.5966 4.23332 43.4517 6.2C43.679 6.31535 43.8814 6.47433 44.0472 6.66788C44.2131 6.86142 44.3392 7.08574 44.4184 7.32803C44.4975 7.57031 44.5282 7.82581 44.5086 8.07995C44.489 8.33408 44.4196 8.58187 44.3042 8.80917C44.1889 9.03647 44.0299 9.23882 43.8364 9.40467C43.6428 9.57052 43.4185 9.69663 43.1762 9.77579C42.9339 9.85496 42.6784 9.88562 42.4243 9.86604C42.1702 9.84646 41.9224 9.77701 41.6951 9.66167C38.3881 7.95728 34.7204 7.07136 31.0001 7.07834C26.275 7.07834 21.656 8.47916 17.727 11.1037C13.7979 13.7283 10.7351 17.4588 8.92569 21.8237C7.11632 26.1886 6.64159 30.9919 7.56153 35.6265C8.48146 40.2612 10.7548 44.519 14.0941 47.8619C17.4334 51.2049 21.6888 53.4828 26.3224 54.4077C30.9561 55.3326 35.7599 54.8631 40.1267 53.0584C44.4936 51.2538 48.2274 48.195 50.8562 44.2688C53.485 40.3425 54.8908 35.7251 54.8959 31C54.9094 30.7849 54.9094 30.5692 54.8959 30.3542C54.848 29.8403 55.0061 29.3285 55.3355 28.9312C55.665 28.5339 56.1387 28.2838 56.6526 28.2358C57.1664 28.1879 57.6783 28.346 58.0756 28.6754C58.4728 29.0049 58.723 29.4786 58.7709 29.9925V31C58.7641 38.3632 55.836 45.4228 50.6295 50.6294C45.4229 55.836 38.3633 58.764 31.0001 58.7708Z" fill="#20BF55"/>
<path d="M30.5352 39.8092C30.2841 39.8129 30.0349 39.7643 29.8037 39.6665C29.5724 39.5686 29.364 39.4237 29.1918 39.2408L16.7143 26.9958C16.3515 26.6326 16.1477 26.1401 16.1477 25.6267C16.1477 25.1132 16.3515 24.6208 16.7143 24.2575C17.0852 23.8992 17.5807 23.6989 18.0964 23.6989C18.6121 23.6989 19.1076 23.8992 19.4785 24.2575L30.561 35.185L55.4902 10.6692C55.861 10.3109 56.3566 10.1106 56.8722 10.1106C57.3879 10.1106 57.8835 10.3109 58.2543 10.6692C58.6172 11.0325 58.821 11.5249 58.821 12.0383C58.821 12.5518 58.6172 13.0442 58.2543 13.4075L31.956 39.2408C31.7711 39.4283 31.5494 39.5756 31.3049 39.6734C31.0604 39.7712 30.7984 39.8174 30.5352 39.8092Z" fill="#20BF55"/>
</svg>
