<svg width="53" height="48" viewBox="0 0 53 48" fill="none" xmlns="http://www.w3.org/2000/svg">
<path d="M37.9158 40.1202C38.1351 40.1202 38.3454 40.0331 38.5004 39.8781C38.6555 39.723 38.7426 39.5128 38.7426 39.2935V34.1562C38.7426 34.0111 38.7044 33.8685 38.6318 33.7428C38.5593 33.6171 38.4549 33.5127 38.3292 33.4402L33.8805 30.8712C33.6906 30.7616 33.4649 30.7319 33.2531 30.7886C33.0413 30.8454 32.8607 30.984 32.7511 31.1739C32.6415 31.3638 32.6118 31.5894 32.6685 31.8012C32.7253 32.013 32.8639 32.1936 33.0538 32.3032L37.0891 34.6334V39.2935C37.0891 39.5128 37.1762 39.723 37.3312 39.8781C37.4863 40.0331 37.6966 40.1202 37.9158 40.1202ZM19.1952 5.42976L25.7112 9.19136V14.1352C25.7112 14.3544 25.7983 14.5647 25.9533 14.7198C26.1084 14.8748 26.3186 14.9619 26.5379 14.9619C26.7572 14.9619 26.9675 14.8748 27.1225 14.7198C27.2775 14.5647 27.3646 14.3544 27.3646 14.1352V9.19167L33.8805 5.43007C34.0688 5.31966 34.2058 5.13924 34.2616 4.92818C34.3174 4.71712 34.2875 4.49255 34.1783 4.30349C34.0692 4.11443 33.8897 3.97622 33.679 3.91902C33.4683 3.86182 33.2435 3.89028 33.0538 3.99818L26.5379 7.75978L20.022 3.99818C19.8322 3.89028 19.6074 3.86182 19.3967 3.91902C19.1861 3.97622 19.0065 4.11443 18.8974 4.30349C18.7882 4.49255 18.7583 4.71712 18.8141 4.92818C18.8699 5.13924 19.0069 5.31966 19.1952 5.43007V5.42976ZM30.1602 27.2914C30.1602 27.5107 30.2473 27.7209 30.4024 27.876C30.5574 28.031 30.7677 28.1181 30.9869 28.1181C31.2062 28.1181 31.4165 28.031 31.5715 27.876C31.7266 27.7209 31.8137 27.5107 31.8137 27.2914V22.1541C31.8137 22.009 31.7755 21.8664 31.7029 21.7408C31.6303 21.6151 31.526 21.5107 31.4003 21.4382L26.9514 18.8695C26.7616 18.7616 26.5368 18.7332 26.3262 18.7904C26.1155 18.8476 25.936 18.9858 25.8268 19.1749C25.7176 19.3639 25.6877 19.5885 25.7435 19.7995C25.7993 20.0106 25.9363 20.191 26.1247 20.3014L30.1603 22.6315L30.1602 27.2914Z" fill="white"/>
<path d="M46.9121 28.0073L40.3959 31.7689L34.2938 28.2463V20.7221C34.2938 20.577 34.2556 20.4344 34.1831 20.3088C34.1105 20.1831 34.0062 20.0787 33.8805 20.0062L26.9514 16.0056C26.8257 15.9331 26.6831 15.8949 26.538 15.8949C26.3929 15.8949 26.2503 15.9331 26.1247 16.0056L19.1954 20.0062C19.0698 20.0787 18.9654 20.1831 18.8928 20.3088C18.8203 20.4344 18.7821 20.577 18.7821 20.7221V28.2463L12.6795 31.7696L6.16376 28.008C5.97387 27.8984 5.7482 27.8687 5.5364 27.9255C5.32461 27.9822 5.14403 28.1208 5.0344 28.3107C4.92477 28.5006 4.89507 28.7262 4.95182 28.938C5.00858 29.1498 5.14714 29.3304 5.33704 29.44L11.8528 33.2016V40.7255C11.8528 40.9447 11.9399 41.155 12.0949 41.31C12.25 41.4651 12.4602 41.5522 12.6795 41.5522C12.8988 41.5522 13.109 41.4651 13.2641 41.31C13.4191 41.155 13.5062 40.9447 13.5062 40.7255V33.2015L19.6087 29.6782L25.7113 33.2015V34.4371C25.7113 34.6563 25.7984 34.8666 25.9534 35.0217C26.1085 35.1767 26.3188 35.2638 26.538 35.2638C26.7573 35.2638 26.9676 35.1767 27.1226 35.0217C27.2776 34.8666 27.3647 34.6563 27.3647 34.4371V33.2015L33.4672 29.6782L39.5693 33.2015V40.248L33.4671 43.7712L27.3647 40.248V36.9943C27.3647 36.7751 27.2776 36.5648 27.1226 36.4098C26.9676 36.2547 26.7573 36.1676 26.538 36.1676C26.3188 36.1676 26.1085 36.2547 25.9534 36.4098C25.7984 36.5648 25.7113 36.7751 25.7113 36.9943V40.7249C25.7113 40.8701 25.7495 41.0126 25.8221 41.1383C25.8946 41.264 25.999 41.3683 26.1247 41.4409L33.0538 45.4422C33.1794 45.5148 33.322 45.553 33.4671 45.553C33.6122 45.553 33.7548 45.5148 33.8805 45.4422L40.8094 41.4413C40.9351 41.3687 41.0394 41.2644 41.112 41.1387C41.1845 41.013 41.2227 40.8705 41.2227 40.7254V33.2011L47.7386 29.4395C47.9269 29.3291 48.0639 29.1487 48.1197 28.9376C48.1755 28.7266 48.1456 28.502 48.0364 28.3129C47.9273 28.1239 47.7478 27.9857 47.5371 27.9285C47.3264 27.8713 47.1016 27.8997 46.9119 28.0076L46.9121 28.0073ZM20.4354 21.1994L26.538 17.6762L32.6405 21.1994V28.2463L26.538 31.7692L20.4354 28.2463V21.1994ZM37.0859 4.93204C37.5736 4.93204 38.0504 4.78741 38.456 4.51644C38.8615 4.24546 39.1776 3.86032 39.3642 3.4097C39.5509 2.95909 39.5997 2.46325 39.5045 1.98489C39.4094 1.50652 39.1745 1.06712 38.8296 0.722245C38.4847 0.37737 38.0453 0.142513 37.5669 0.0473724C37.0886 -0.0477679 36.5927 0.0010823 36.1421 0.187745C35.6915 0.374409 35.3064 0.690501 35.0354 1.09605C34.7645 1.5016 34.6199 1.97839 34.6199 2.46613C34.6207 3.11991 34.8807 3.7467 35.343 4.20898C35.8053 4.67127 36.4321 4.9313 37.0859 4.93204ZM37.0859 1.65356C37.2466 1.65356 37.4037 1.70121 37.5373 1.7905C37.671 1.87979 37.7751 2.00669 37.8366 2.15517C37.8981 2.30365 37.9142 2.46703 37.8829 2.62465C37.8515 2.78227 37.7741 2.92706 37.6605 3.0407C37.5468 3.15434 37.4021 3.23173 37.2444 3.26308C37.0868 3.29443 36.9234 3.27834 36.7749 3.21684C36.6265 3.15534 36.4996 3.05119 36.4103 2.91756C36.321 2.78394 36.2733 2.62684 36.2733 2.46613C36.2736 2.25069 36.3592 2.04413 36.5116 1.89179C36.6639 1.73946 36.8705 1.65378 37.0859 1.65356ZM16.3834 4.93204C16.8712 4.93204 17.348 4.78741 17.7535 4.51644C18.159 4.24546 18.4751 3.86032 18.6618 3.4097C18.8484 2.95909 18.8972 2.46325 18.8021 1.98489C18.7069 1.50652 18.472 1.06712 18.1271 0.722245C17.7823 0.37737 17.3428 0.142513 16.8645 0.0473724C16.3861 -0.0477679 15.8903 0.0010823 15.4397 0.187745C14.9891 0.374409 14.6039 0.690501 14.333 1.09605C14.062 1.5016 13.9174 1.97839 13.9174 2.46613C13.9182 3.11991 14.1782 3.7467 14.6406 4.20898C15.1029 4.67127 15.7297 4.9313 16.3834 4.93204ZM16.3834 1.65356C16.5442 1.65356 16.7013 1.70121 16.8349 1.7905C16.9685 1.87979 17.0727 2.00669 17.1342 2.15517C17.1957 2.30365 17.2117 2.46703 17.1804 2.62465C17.149 2.78227 17.0717 2.92706 16.958 3.0407C16.8444 3.15434 16.6996 3.23173 16.542 3.26308C16.3843 3.29443 16.221 3.27834 16.0725 3.21684C15.924 3.15534 15.7971 3.05119 15.7078 2.91756C15.6185 2.78394 15.5709 2.62684 15.5709 2.46613C15.5711 2.25069 15.6568 2.04413 15.8091 1.89179C15.9614 1.73946 16.168 1.65378 16.3834 1.65356ZM2.46602 24.3318C1.97829 24.3318 1.50151 24.4764 1.09597 24.7474C0.690439 25.0184 0.374363 25.4035 0.187716 25.8541C0.00106849 26.3047 -0.047767 26.8005 0.047385 27.2789C0.142537 27.7573 0.377403 28.1967 0.722282 28.5416C1.06716 28.8864 1.50656 29.1213 1.98493 29.2165C2.46329 29.3116 2.95912 29.2628 3.40973 29.0761C3.86033 28.8895 4.24547 28.5734 4.51644 28.1679C4.78741 27.7623 4.93204 27.2855 4.93204 26.7978C4.9313 26.144 4.67126 25.5172 4.20895 25.0549C3.74664 24.5926 3.11982 24.3325 2.46602 24.3318ZM2.46602 27.6103C2.30531 27.6103 2.1482 27.5626 2.01457 27.4733C1.88094 27.384 1.7768 27.2571 1.7153 27.1086C1.6538 26.9602 1.63771 26.7968 1.66907 26.6391C1.70044 26.4815 1.77784 26.3367 1.89149 26.2231C2.00514 26.1095 2.14993 26.0321 2.30756 26.0007C2.46519 25.9694 2.62857 25.9855 2.77705 26.047C2.92553 26.1085 3.05242 26.2127 3.1417 26.3463C3.23097 26.48 3.27861 26.6371 3.27859 26.7978C3.27834 27.0132 3.19265 27.2198 3.04032 27.3721C2.88798 27.5244 2.68144 27.6101 2.46602 27.6103ZM50.4447 24.3318C49.9569 24.3318 49.4801 24.4764 49.0746 24.7473C48.669 25.0183 48.3529 25.4034 48.1663 25.854C47.9796 26.3046 47.9308 26.8005 48.0259 27.2788C48.121 27.7572 48.3559 28.1966 48.7008 28.5415C49.0457 28.8864 49.4851 29.1213 49.9634 29.2164C50.4418 29.3116 50.9376 29.2628 51.3882 29.0761C51.8389 28.8895 52.224 28.5734 52.495 28.1679C52.7659 27.7623 52.9106 27.2856 52.9106 26.7978C52.9098 26.144 52.6498 25.5172 52.1875 25.0549C51.7252 24.5926 51.0984 24.3326 50.4447 24.3318ZM50.4447 27.6103C50.2839 27.6103 50.1268 27.5627 49.9932 27.4734C49.8595 27.3841 49.7554 27.2572 49.6939 27.1087C49.6324 26.9602 49.6163 26.7968 49.6476 26.6392C49.679 26.4816 49.7563 26.3368 49.87 26.2231C49.9836 26.1095 50.1284 26.0321 50.2861 26.0008C50.4437 25.9694 50.6071 25.9855 50.7556 26.047C50.904 26.1085 51.031 26.2127 51.1202 26.3463C51.2095 26.48 51.2571 26.6371 51.2571 26.7978C51.2569 27.0132 51.1712 27.2197 51.0189 27.372C50.8666 27.5243 50.6601 27.61 50.4447 27.6103ZM12.3982 42.26C11.9105 42.26 11.4337 42.4046 11.0281 42.6755C10.6226 42.9465 10.3065 43.3316 10.1198 43.7822C9.93316 44.2329 9.88431 44.7287 9.97946 45.2071C10.0746 45.6854 10.3095 46.1248 10.6544 46.4697C10.9992 46.8146 11.4387 47.0495 11.917 47.1446C12.3954 47.2398 12.8912 47.1909 13.3419 47.0043C13.7925 46.8176 14.1776 46.5015 14.4486 46.096C14.7195 45.6904 14.8641 45.2136 14.8641 44.7259C14.8634 44.0721 14.6033 43.4454 14.141 42.9831C13.6787 42.5208 13.052 42.2607 12.3982 42.26ZM12.3982 45.5385C12.2375 45.5385 12.0804 45.4908 11.9467 45.4016C11.8131 45.3123 11.7089 45.1854 11.6474 45.0369C11.5859 44.8884 11.5698 44.7251 11.6011 44.5674C11.6325 44.4098 11.7099 44.265 11.8235 44.1514C11.9371 44.0377 12.0819 43.9603 12.2395 43.9289C12.3972 43.8976 12.5606 43.9137 12.709 43.9752C12.8575 44.0367 12.9844 44.1408 13.0737 44.2744C13.163 44.4081 13.2107 44.5652 13.2107 44.7259C13.2104 44.9413 13.1248 45.1478 12.9724 45.3002C12.8201 45.4525 12.6136 45.5382 12.3982 45.5385Z" fill="white"/>
</svg>
