<svg width="57" height="78" viewBox="0 0 57 78" fill="none" xmlns="http://www.w3.org/2000/svg">
<path d="M18.2292 6.25C18.2292 2.80418 21.0334 0 24.4792 0H45.3125C45.998 0 46.6396 0.337601 47.0291 0.902176C47.4185 1.46675 47.504 2.18735 47.2583 2.82707L32.154 42.4103C31.8477 43.2167 31.073 43.75 30.2082 43.75H24.4792C21.0334 43.75 18.2292 40.9458 18.2292 37.5V6.25Z" fill="#2196F3"/>
<path d="M30.7292 8.33321V45.8332C30.7292 47.271 31.8958 48.4375 33.3332 48.4375C33.625 48.4375 33.8958 48.3959 34.1667 48.3124L46.6667 44.146C47.6875 43.7916 48.4375 42.8123 48.4375 41.6668V4.16679C48.4375 2.72903 47.2709 1.5625 45.8332 1.5625C45.5417 1.5625 45.2709 1.60408 45 1.68762L32.5 5.85403C31.4792 6.20842 30.7292 7.18765 30.7292 8.33321Z" fill="#64B5F6"/>
<path d="M29.1668 8.33319C29.1668 6.55211 30.3002 4.96252 31.9874 4.37925L44.5042 0.206358C47.3313 -0.66263 50 1.42286 50 4.16678V41.6668C50 43.4479 48.8667 45.0374 47.179 45.6207L34.6626 49.7936C34.2022 49.9355 33.7792 50 33.3332 50C31.0352 50 29.1668 48.1312 29.1668 45.8332M45.8332 3.12498C45.702 3.12498 45.5853 3.14177 45.4605 3.18106L32.996 7.33755C32.5874 7.47717 32.2918 7.88954 32.2918 8.33319V45.8332C32.2918 46.5397 33.0311 47.0249 33.7063 46.8189L46.1708 42.6624C46.579 42.5228 46.875 42.1104 46.875 41.6668V4.16678C46.875 3.59152 46.4085 3.12498 45.8332 3.12498Z" fill="#64B5F6"/>
<path d="M21.3543 23.4375H1.5625C0.699997 23.4375 0 22.7375 0 21.875C0 21.0125 0.699997 20.3125 1.5625 20.3125H21.3543C22.2168 20.3125 22.9168 21.0125 22.9168 21.875C22.9168 22.7375 22.2168 23.4375 21.3543 23.4375Z" fill="black"/>
<path d="M13.5418 31.25C13.1416 31.25 12.7419 31.0978 12.4374 30.7919C11.8271 30.1811 11.8271 29.1916 12.4374 28.5812L19.146 21.8731L12.4374 15.1669C11.8271 14.5561 11.8271 13.5666 12.4374 12.9562C13.0478 12.3459 14.0373 12.3459 14.6481 12.9562L22.4606 20.7687C23.0709 21.3791 23.0709 22.3686 22.4606 22.9794L14.6481 30.7919C14.3417 31.0978 13.9416 31.25 13.5418 31.25Z" fill="black"/>
<path d="M33.3332 50C31.0352 50 29.1668 48.1312 29.1668 45.8332V8.3332C29.1668 6.55212 30.3002 4.96253 31.9874 4.37698L44.5042 0.204081C47.3042 -0.654226 50 1.42288 50 4.16679V41.6668C50 43.446 48.8667 45.0333 47.1813 45.6207L34.6604 49.7959C34.2041 49.9374 33.7814 50 33.3332 50ZM45.8332 3.12499C45.6978 3.12499 45.5834 3.14178 45.4605 3.17916L32.996 7.33528C32.5874 7.47718 32.2918 7.88955 32.2918 8.3332V45.8332C32.2918 46.5439 33.0624 47.023 33.7063 46.8208L46.1708 42.6647C46.5771 42.5228 46.875 42.1104 46.875 41.6668V4.16679C46.875 3.59382 46.4085 3.12499 45.8332 3.12499Z" fill="black"/>
<path d="M18.2292 10.4168C17.3667 10.4168 16.6667 9.7168 16.6667 8.85429V5.72929C16.6667 2.56882 19.2352 0 22.3957 0H45.8332C46.6957 0 47.3957 0.699997 47.3957 1.5625C47.3957 2.425 46.6957 3.125 45.8332 3.125H22.3957C20.9602 3.125 19.7917 4.29382 19.7917 5.72929V8.85429C19.7917 9.7168 19.0918 10.4168 18.2292 10.4168Z" fill="black"/>
<path d="M30.7292 43.75H22.3957C19.2352 43.75 16.6667 41.1812 16.6667 38.0207V34.8957C16.6667 34.0332 17.3667 33.3332 18.2292 33.3332C19.0918 33.3332 19.7917 34.0332 19.7917 34.8957V38.0207C19.7917 39.4562 20.9602 40.625 22.3957 40.625H30.7292C31.5918 40.625 32.2917 41.325 32.2917 42.1875C32.2917 43.05 31.5918 43.75 30.7292 43.75Z" fill="black"/>
<path d="M16.832 70.5391V73H9.6543V70.5391H16.832ZM10.7383 58.7812V73H7.55469V58.7812H10.7383ZM17.7988 67.8242V67.6191C17.7988 66.8444 17.9095 66.1315 18.1309 65.4805C18.3522 64.8229 18.6777 64.2533 19.1074 63.7715C19.5371 63.2897 20.0645 62.9154 20.6895 62.6484C21.3145 62.375 22.0306 62.2383 22.8379 62.2383C23.6582 62.2383 24.3809 62.375 25.0059 62.6484C25.6374 62.9154 26.168 63.2897 26.5977 63.7715C27.0273 64.2533 27.3529 64.8229 27.5742 65.4805C27.7956 66.1315 27.9062 66.8444 27.9062 67.6191V67.8242C27.9062 68.5924 27.7956 69.3053 27.5742 69.9629C27.3529 70.6139 27.0273 71.1836 26.5977 71.6719C26.168 72.1536 25.6406 72.528 25.0156 72.7949C24.3906 73.0618 23.6712 73.1953 22.8574 73.1953C22.0501 73.1953 21.3307 73.0618 20.6992 72.7949C20.0677 72.528 19.5371 72.1536 19.1074 71.6719C18.6777 71.1836 18.3522 70.6139 18.1309 69.9629C17.9095 69.3053 17.7988 68.5924 17.7988 67.8242ZM20.8555 67.6191V67.8242C20.8555 68.2409 20.888 68.6315 20.9531 68.9961C21.0247 69.3607 21.1387 69.6797 21.2949 69.9531C21.4512 70.2266 21.6562 70.4414 21.9102 70.5977C22.1706 70.7474 22.4863 70.8223 22.8574 70.8223C23.2285 70.8223 23.541 70.7474 23.7949 70.5977C24.0488 70.4414 24.2539 70.2266 24.4102 69.9531C24.5664 69.6797 24.6771 69.3607 24.7422 68.9961C24.8138 68.6315 24.8496 68.2409 24.8496 67.8242V67.6191C24.8496 67.209 24.8138 66.8249 24.7422 66.4668C24.6771 66.1022 24.5664 65.7799 24.4102 65.5C24.2539 65.2201 24.0456 65.002 23.7852 64.8457C23.5312 64.6895 23.2155 64.6113 22.8379 64.6113C22.4733 64.6113 22.1641 64.6895 21.9102 64.8457C21.6562 65.002 21.4512 65.2201 21.2949 65.5C21.1387 65.7799 21.0247 66.1022 20.9531 66.4668C20.888 66.8249 20.8555 67.209 20.8555 67.6191ZM36.168 62.4336H38.9414V72.6191C38.9414 73.5892 38.7201 74.4128 38.2773 75.0898C37.8411 75.7669 37.2324 76.2812 36.4512 76.6328C35.6699 76.9844 34.7552 77.1602 33.707 77.1602C33.2513 77.1602 32.776 77.0983 32.2812 76.9746C31.7865 76.8574 31.321 76.6784 30.8848 76.4375C30.4486 76.2031 30.084 75.9036 29.791 75.5391L31.0898 73.7422C31.3893 74.0807 31.7474 74.3542 32.1641 74.5625C32.5807 74.7773 33.056 74.8848 33.5898 74.8848C34.0781 74.8848 34.4915 74.7969 34.8301 74.6211C35.1686 74.4453 35.4258 74.1882 35.6016 73.8496C35.7839 73.5111 35.875 73.1009 35.875 72.6191V64.9043L36.168 62.4336ZM29.1074 67.8438V67.6387C29.1074 66.8379 29.2051 66.1087 29.4004 65.4512C29.5957 64.7871 29.8789 64.2174 30.25 63.7422C30.6276 63.2604 31.0801 62.8893 31.6074 62.6289C32.1413 62.3685 32.7402 62.2383 33.4043 62.2383C34.1204 62.2383 34.7129 62.375 35.1816 62.6484C35.6504 62.9154 36.0312 63.293 36.3242 63.7812C36.6172 64.263 36.8483 64.8327 37.0176 65.4902C37.1868 66.1413 37.3236 66.8477 37.4277 67.6094V67.9609C37.3236 68.6901 37.1738 69.3704 36.9785 70.002C36.7832 70.6335 36.5293 71.1901 36.2168 71.6719C35.9043 72.1471 35.5137 72.5215 35.0449 72.7949C34.5827 73.0618 34.0293 73.1953 33.3848 73.1953C32.7272 73.1953 32.1348 73.0618 31.6074 72.7949C31.0801 72.528 30.6276 72.1536 30.25 71.6719C29.8789 71.1901 29.5957 70.6237 29.4004 69.9727C29.2051 69.3216 29.1074 68.612 29.1074 67.8438ZM32.1543 67.6387V67.8438C32.1543 68.2604 32.1934 68.6478 32.2715 69.0059C32.3561 69.3639 32.4798 69.6797 32.6426 69.9531C32.8118 70.2266 33.0202 70.4414 33.2676 70.5977C33.5215 70.7474 33.8177 70.8223 34.1562 70.8223C34.651 70.8223 35.0514 70.7181 35.3574 70.5098C35.6699 70.2949 35.8978 69.9987 36.041 69.6211C36.1908 69.2435 36.2689 68.804 36.2754 68.3027V67.2773C36.2754 66.8607 36.2331 66.4863 36.1484 66.1543C36.0638 65.8223 35.9368 65.5423 35.7676 65.3145C35.6048 65.0866 35.39 64.9141 35.123 64.7969C34.8626 64.6732 34.5469 64.6113 34.1758 64.6113C33.8438 64.6113 33.5508 64.6895 33.2969 64.8457C33.043 64.9954 32.8314 65.207 32.6621 65.4805C32.4928 65.7539 32.3659 66.0762 32.2812 66.4473C32.1966 66.8118 32.1543 67.209 32.1543 67.6387ZM44.1855 62.4336V73H41.1289V62.4336H44.1855ZM40.9434 59.6992C40.9434 59.2565 41.0996 58.8952 41.4121 58.6152C41.7246 58.3288 42.1348 58.1855 42.6426 58.1855C43.1504 58.1855 43.5605 58.3288 43.873 58.6152C44.1921 58.8952 44.3516 59.2565 44.3516 59.6992C44.3516 60.1354 44.1921 60.4967 43.873 60.7832C43.5605 61.0632 43.1504 61.2031 42.6426 61.2031C42.1348 61.2031 41.7246 61.0632 41.4121 60.7832C41.0996 60.4967 40.9434 60.1354 40.9434 59.6992ZM49.3711 64.6895V73H46.3145V62.4336H49.1855L49.3711 64.6895ZM48.9707 67.3457L48.209 67.3652C48.209 66.571 48.3066 65.8581 48.502 65.2266C48.6973 64.5951 48.974 64.0579 49.332 63.6152C49.6966 63.166 50.1296 62.8242 50.6309 62.5898C51.1387 62.3555 51.6986 62.2383 52.3105 62.2383C52.8053 62.2383 53.2578 62.3099 53.668 62.4531C54.0781 62.5964 54.4297 62.8275 54.7227 63.1465C55.0221 63.459 55.25 63.8757 55.4062 64.3965C55.5625 64.9108 55.6406 65.5456 55.6406 66.3008V73H52.5742V66.291C52.5742 65.8483 52.5124 65.5065 52.3887 65.2656C52.265 65.0247 52.0827 64.8555 51.8418 64.7578C51.6074 64.6602 51.321 64.6113 50.9824 64.6113C50.6243 64.6113 50.3184 64.6829 50.0645 64.8262C49.8105 64.9629 49.6022 65.1549 49.4395 65.4023C49.2767 65.6497 49.1562 65.9395 49.0781 66.2715C49.0065 66.6035 48.9707 66.9616 48.9707 67.3457Z" fill="#040404"/>
</svg>
