<svg width="63" height="69" viewBox="0 0 63 69" fill="none" xmlns="http://www.w3.org/2000/svg">
<path d="M10.4844 59.5391V62H3.30664V59.5391H10.4844ZM4.39062 47.7812V62H1.20703V47.7812H4.39062ZM11.4512 56.8242V56.6191C11.4512 55.8444 11.5618 55.1315 11.7832 54.4805C12.0046 53.8229 12.3301 53.2533 12.7598 52.7715C13.1895 52.2897 13.7168 51.9154 14.3418 51.6484C14.9668 51.375 15.6829 51.2383 16.4902 51.2383C17.3105 51.2383 18.0332 51.375 18.6582 51.6484C19.2897 51.9154 19.8203 52.2897 20.25 52.7715C20.6797 53.2533 21.0052 53.8229 21.2266 54.4805C21.4479 55.1315 21.5586 55.8444 21.5586 56.6191V56.8242C21.5586 57.5924 21.4479 58.3053 21.2266 58.9629C21.0052 59.6139 20.6797 60.1836 20.25 60.6719C19.8203 61.1536 19.293 61.528 18.668 61.7949C18.043 62.0618 17.3236 62.1953 16.5098 62.1953C15.7025 62.1953 14.9831 62.0618 14.3516 61.7949C13.7201 61.528 13.1895 61.1536 12.7598 60.6719C12.3301 60.1836 12.0046 59.6139 11.7832 58.9629C11.5618 58.3053 11.4512 57.5924 11.4512 56.8242ZM14.5078 56.6191V56.8242C14.5078 57.2409 14.5404 57.6315 14.6055 57.9961C14.6771 58.3607 14.791 58.6797 14.9473 58.9531C15.1035 59.2266 15.3086 59.4414 15.5625 59.5977C15.8229 59.7474 16.1387 59.8223 16.5098 59.8223C16.8809 59.8223 17.1934 59.7474 17.4473 59.5977C17.7012 59.4414 17.9062 59.2266 18.0625 58.9531C18.2188 58.6797 18.3294 58.3607 18.3945 57.9961C18.4661 57.6315 18.502 57.2409 18.502 56.8242V56.6191C18.502 56.209 18.4661 55.8249 18.3945 55.4668C18.3294 55.1022 18.2188 54.7799 18.0625 54.5C17.9062 54.2201 17.6979 54.002 17.4375 53.8457C17.1836 53.6895 16.8678 53.6113 16.4902 53.6113C16.1257 53.6113 15.8164 53.6895 15.5625 53.8457C15.3086 54.002 15.1035 54.2201 14.9473 54.5C14.791 54.7799 14.6771 55.1022 14.6055 55.4668C14.5404 55.8249 14.5078 56.209 14.5078 56.6191ZM29.8203 51.4336H32.5938V61.6191C32.5938 62.5892 32.3724 63.4128 31.9297 64.0898C31.4935 64.7669 30.8848 65.2812 30.1035 65.6328C29.3223 65.9844 28.4076 66.1602 27.3594 66.1602C26.9036 66.1602 26.4284 66.0983 25.9336 65.9746C25.4388 65.8574 24.9733 65.6784 24.5371 65.4375C24.1009 65.2031 23.7363 64.9036 23.4434 64.5391L24.7422 62.7422C25.0417 63.0807 25.3997 63.3542 25.8164 63.5625C26.2331 63.7773 26.7083 63.8848 27.2422 63.8848C27.7305 63.8848 28.1439 63.7969 28.4824 63.6211C28.821 63.4453 29.0781 63.1882 29.2539 62.8496C29.4362 62.5111 29.5273 62.1009 29.5273 61.6191V53.9043L29.8203 51.4336ZM22.7598 56.8438V56.6387C22.7598 55.8379 22.8574 55.1087 23.0527 54.4512C23.248 53.7871 23.5312 53.2174 23.9023 52.7422C24.2799 52.2604 24.7324 51.8893 25.2598 51.6289C25.7936 51.3685 26.3926 51.2383 27.0566 51.2383C27.7728 51.2383 28.3652 51.375 28.834 51.6484C29.3027 51.9154 29.6836 52.293 29.9766 52.7812C30.2695 53.263 30.5007 53.8327 30.6699 54.4902C30.8392 55.1413 30.9759 55.8477 31.0801 56.6094V56.9609C30.9759 57.6901 30.8262 58.3704 30.6309 59.002C30.4355 59.6335 30.1816 60.1901 29.8691 60.6719C29.5566 61.1471 29.166 61.5215 28.6973 61.7949C28.235 62.0618 27.6816 62.1953 27.0371 62.1953C26.3796 62.1953 25.7871 62.0618 25.2598 61.7949C24.7324 61.528 24.2799 61.1536 23.9023 60.6719C23.5312 60.1901 23.248 59.6237 23.0527 58.9727C22.8574 58.3216 22.7598 57.612 22.7598 56.8438ZM25.8066 56.6387V56.8438C25.8066 57.2604 25.8457 57.6478 25.9238 58.0059C26.0085 58.3639 26.1322 58.6797 26.2949 58.9531C26.4642 59.2266 26.6725 59.4414 26.9199 59.5977C27.1738 59.7474 27.4701 59.8223 27.8086 59.8223C28.3034 59.8223 28.7038 59.7181 29.0098 59.5098C29.3223 59.2949 29.5501 58.9987 29.6934 58.6211C29.8431 58.2435 29.9212 57.804 29.9277 57.3027V56.2773C29.9277 55.8607 29.8854 55.4863 29.8008 55.1543C29.7161 54.8223 29.5892 54.5423 29.4199 54.3145C29.2572 54.0866 29.0423 53.9141 28.7754 53.7969C28.515 53.6732 28.1992 53.6113 27.8281 53.6113C27.4961 53.6113 27.2031 53.6895 26.9492 53.8457C26.6953 53.9954 26.4837 54.207 26.3145 54.4805C26.1452 54.7539 26.0182 55.0762 25.9336 55.4473C25.849 55.8118 25.8066 56.209 25.8066 56.6387ZM34.1855 56.8242V56.6191C34.1855 55.8444 34.2962 55.1315 34.5176 54.4805C34.7389 53.8229 35.0645 53.2533 35.4941 52.7715C35.9238 52.2897 36.4512 51.9154 37.0762 51.6484C37.7012 51.375 38.4173 51.2383 39.2246 51.2383C40.0449 51.2383 40.7676 51.375 41.3926 51.6484C42.0241 51.9154 42.5547 52.2897 42.9844 52.7715C43.4141 53.2533 43.7396 53.8229 43.9609 54.4805C44.1823 55.1315 44.293 55.8444 44.293 56.6191V56.8242C44.293 57.5924 44.1823 58.3053 43.9609 58.9629C43.7396 59.6139 43.4141 60.1836 42.9844 60.6719C42.5547 61.1536 42.0273 61.528 41.4023 61.7949C40.7773 62.0618 40.0579 62.1953 39.2441 62.1953C38.4368 62.1953 37.7174 62.0618 37.0859 61.7949C36.4544 61.528 35.9238 61.1536 35.4941 60.6719C35.0645 60.1836 34.7389 59.6139 34.5176 58.9629C34.2962 58.3053 34.1855 57.5924 34.1855 56.8242ZM37.2422 56.6191V56.8242C37.2422 57.2409 37.2747 57.6315 37.3398 57.9961C37.4115 58.3607 37.5254 58.6797 37.6816 58.9531C37.8379 59.2266 38.043 59.4414 38.2969 59.5977C38.5573 59.7474 38.873 59.8223 39.2441 59.8223C39.6152 59.8223 39.9277 59.7474 40.1816 59.5977C40.4355 59.4414 40.6406 59.2266 40.7969 58.9531C40.9531 58.6797 41.0638 58.3607 41.1289 57.9961C41.2005 57.6315 41.2363 57.2409 41.2363 56.8242V56.6191C41.2363 56.209 41.2005 55.8249 41.1289 55.4668C41.0638 55.1022 40.9531 54.7799 40.7969 54.5C40.6406 54.2201 40.4323 54.002 40.1719 53.8457C39.918 53.6895 39.6022 53.6113 39.2246 53.6113C38.86 53.6113 38.5508 53.6895 38.2969 53.8457C38.043 54.002 37.8379 54.2201 37.6816 54.5C37.5254 54.7799 37.4115 55.1022 37.3398 55.4668C37.2747 55.8249 37.2422 56.209 37.2422 56.6191ZM52.0957 59.4512V51.4336H55.1621V62H52.291L52.0957 59.4512ZM52.418 57.293L53.2578 57.2734C53.2578 57.9831 53.1732 58.6374 53.0039 59.2363C52.8411 59.8353 52.5938 60.3561 52.2617 60.7988C51.9362 61.2415 51.5293 61.5866 51.041 61.834C50.5592 62.0749 49.9961 62.1953 49.3516 62.1953C48.8307 62.1953 48.3522 62.1237 47.916 61.9805C47.4863 61.8307 47.1152 61.5996 46.8027 61.2871C46.4902 60.9681 46.2493 60.5612 46.0801 60.0664C45.9108 59.5651 45.8262 58.9661 45.8262 58.2695V51.4336H48.873V58.2891C48.873 58.5625 48.9056 58.7969 48.9707 58.9922C49.0423 59.181 49.1367 59.3372 49.2539 59.4609C49.3776 59.5846 49.5273 59.6758 49.7031 59.7344C49.8854 59.793 50.084 59.8223 50.2988 59.8223C50.8392 59.8223 51.2624 59.7116 51.5684 59.4902C51.8809 59.2624 52.099 58.9596 52.2227 58.582C52.3529 58.1979 52.418 57.7682 52.418 57.293ZM62.5156 51.4336V53.5723H56.2461V51.4336H62.5156ZM57.6816 48.8164H60.7383V58.6895C60.7383 58.9824 60.7741 59.207 60.8457 59.3633C60.9173 59.5195 61.0345 59.6302 61.1973 59.6953C61.36 59.7539 61.5684 59.7832 61.8223 59.7832C62.0046 59.7832 62.1608 59.7767 62.291 59.7637C62.4212 59.7507 62.5417 59.7344 62.6523 59.7148V61.9219C62.3919 62.0065 62.1152 62.0716 61.8223 62.1172C61.5293 62.1693 61.2103 62.1953 60.8652 62.1953C60.2077 62.1953 59.638 62.0879 59.1562 61.873C58.681 61.6582 58.3164 61.3197 58.0625 60.8574C57.8086 60.3887 57.6816 59.7799 57.6816 59.0312V48.8164Z" fill="#040404"/>
<path d="M35.2389 28.5347C35.2389 31.1567 33.276 33.2905 30.864 33.2905H26.8539C26.2485 33.2905 25.7062 32.8847 25.4918 32.2696L14.9191 2.14974C14.7471 1.66296 14.8083 1.11609 15.0796 0.686488C15.3522 0.256889 15.8013 0 16.2812 0H30.864C33.276 0 35.2389 2.13377 35.2389 4.75578V28.5347Z" fill="#2196F3"/>
<path d="M26.4891 6.34096V34.8757C26.4891 35.9697 25.6726 36.8573 24.6665 36.8573C24.4622 36.8573 24.2726 36.8257 24.083 36.7621L15.3333 33.5918C14.6187 33.3221 14.0938 32.577 14.0938 31.7053V3.17064C14.0938 2.07661 14.9103 1.18896 15.9167 1.18896C16.1207 1.18896 16.3103 1.2206 16.4999 1.28417L25.2496 4.4545C25.9642 4.72416 26.4891 5.46928 26.4891 6.34096Z" fill="#64B5F6"/>
<path d="M23.7375 37.8893L14.976 34.714C13.7933 34.2702 13 33.0606 13 31.7054V3.17067C13 1.08276 14.8681 -0.504147 16.8456 0.157088L25.6069 3.33235C26.7895 3.77617 27.5828 4.98573 27.5828 6.341V34.8757C27.5828 36.6243 26.275 38.0463 24.6664 38.0463C24.3543 38.0463 24.0581 37.9972 23.7375 37.8893ZM15.1874 3.17067V31.7054C15.1874 32.0429 15.3946 32.3567 15.6788 32.4647L24.4039 35.6272C24.8779 35.7825 25.3954 35.4133 25.3954 34.8757V6.341C25.3954 6.00341 25.1884 5.68963 24.9041 5.58165L16.1776 2.4209C16.0902 2.39071 16.0085 2.37794 15.9167 2.37794C15.514 2.37794 15.1874 2.73294 15.1874 3.17067Z" fill="#64B5F6"/>
<path d="M46.9051 17.8342H33.0512C32.4475 17.8342 31.9575 17.3015 31.9575 16.6452C31.9575 15.9889 32.4475 15.4563 33.0512 15.4563H46.9051C47.5088 15.4563 47.9988 15.9889 47.9988 16.6452C47.9988 17.3015 47.5088 17.8342 46.9051 17.8342Z" fill="black"/>
<path d="M41.4367 23.779C41.1566 23.779 40.8768 23.6631 40.6637 23.4304C40.2365 22.9656 40.2365 22.2127 40.6637 21.7482L45.3595 16.6438L40.6637 11.5392C40.2365 11.0747 40.2365 10.3218 40.6637 9.85733C41.0912 9.39261 41.7838 9.39261 42.2111 9.85733L47.6797 15.8021C48.1069 16.2665 48.1069 17.0195 47.6797 17.4839L42.2111 23.4286C41.9967 23.6631 41.7168 23.779 41.4367 23.779Z" fill="black"/>
<path d="M24.6664 38.0462C24.3543 38.0462 24.0581 37.9986 23.7623 37.8988L14.9861 34.7203C13.792 34.2669 13 33.0574 13 31.7053V3.17062C13 1.42203 14.3081 0 15.9167 0C16.2286 0 16.5247 0.0476043 16.8208 0.147457L25.5967 3.32591C26.7911 3.77931 27.5828 4.98887 27.5828 6.34094V34.8756C27.5828 36.6242 26.275 38.0462 24.6664 38.0462ZM15.9167 2.37789C15.5156 2.37789 15.1874 2.73463 15.1874 3.17062V31.7053C15.1874 32.0429 15.396 32.3567 15.6934 32.4693L24.4285 35.6335C24.4913 35.6556 24.573 35.6684 24.6664 35.6684C25.0675 35.6684 25.3954 35.3116 25.3954 34.8756V6.34094C25.3954 6.00336 25.1868 5.68958 24.8894 5.57695L16.1543 2.41272C16.0916 2.39066 16.0099 2.37789 15.9167 2.37789Z" fill="black"/>
<path d="M35.2387 12.6822C34.6349 12.6822 34.1449 12.1495 34.1449 11.4932V4.35956C34.1449 3.26728 33.3271 2.37789 32.3223 2.37789H15.9165C15.3127 2.37789 14.8228 1.84525 14.8228 1.18895C14.8228 0.532645 15.3127 0 15.9165 0H32.3223C34.5345 0 36.3324 1.95468 36.3324 4.35956V11.4932C36.3324 12.1495 35.8424 12.6822 35.2387 12.6822Z" fill="black"/>
<path d="M32.3221 33.2906H26.4887C25.885 33.2906 25.395 32.7579 25.395 32.1016C25.395 31.4453 25.885 30.9127 26.4887 30.9127H32.3221C33.3269 30.9127 34.1448 30.0233 34.1448 28.931V21.7973C34.1448 21.141 34.6348 20.6084 35.2385 20.6084C35.8422 20.6084 36.3322 21.141 36.3322 21.7973V28.931C36.3322 31.3359 34.5344 33.2906 32.3221 33.2906Z" fill="black"/>
</svg>
