<svg width="18" height="23" viewBox="0 0 18 23" fill="none" xmlns="http://www.w3.org/2000/svg">
<path d="M17.78 20.6278L12.6613 14.3126C13.6529 12.8016 14.2498 10.8816 14.2498 8.79042C14.2498 3.94367 11.0534 0 7.1249 0C3.19644 0 0 3.94362 0 8.79038C0 13.6371 3.19648 17.5808 7.12493 17.5808C8.8199 17.5808 10.3761 16.8443 11.6009 15.621L16.7196 21.9362C16.8658 22.1166 17.0578 22.2073 17.2498 22.2073C17.4418 22.2073 17.6338 22.1166 17.7801 21.9362C18.0733 21.5744 18.0733 20.9896 17.78 20.6278ZM7.12493 15.7302C4.02296 15.7302 1.5 12.6175 1.5 8.79038C1.5 4.9633 4.02296 1.85058 7.12493 1.85058C10.2269 1.85058 12.7499 4.9633 12.7499 8.79038C12.7499 12.6175 10.2269 15.7302 7.12493 15.7302Z" fill="#BBB7B7"/>
</svg>
