<svg width="25" height="13" viewBox="0 0 25 13" xmlns="http://www.w3.org/2000/svg">
<path d="M23.7179 0H1.28208C0.576903 0 0 0.449984 0 0.999982V12C0 12.5499 0.576903 13 1.28208 13H23.7179C24.423 13 25 12.55 25 12V0.999982C25 0.449984 24.423 0 23.7179 0ZM23.2368 0.749949L13.2375 6.60001C13.0577 6.70673 12.7817 6.77349 12.4999 6.7725C12.2182 6.77349 11.9423 6.70673 11.7624 6.60001L1.76313 0.749949H23.2368ZM17.8955 6.98601L23.3442 12.236C23.3497 12.2413 23.3564 12.2453 23.3622 12.2501H1.63779C1.64355 12.2451 1.65029 12.2413 1.65576 12.236L7.10448 6.98601C7.27142 6.82502 7.23978 6.58901 7.03299 6.45849C6.8266 6.32827 6.52401 6.35295 6.35702 6.51398L0.961522 11.7127V1.21871L11.1858 7.19994C11.5701 7.4232 12.0377 7.52146 12.4999 7.52245C12.9614 7.52169 13.4294 7.42343 13.8139 7.19994L24.0382 1.21871V11.7127L18.6429 6.51398C18.4759 6.35299 18.173 6.32823 17.9669 6.45849C17.7602 6.5887 17.7284 6.82502 17.8955 6.98601Z" fill="currentColor"/>
</svg>

