<svg width="56" height="56" viewBox="0 0 56 56" fill="none" xmlns="http://www.w3.org/2000/svg">
<path d="M55.1585 20.1967H29.4179C28.8663 20.1967 28.4986 20.5639 28.4986 21.1148V27.2656L26.2003 26.7148L23.7182 24.2361C26.4761 21.6656 26.66 16.2492 26.66 14.6885C30.0614 14.6885 32.4516 13.7705 33.3709 12.118C33.7386 11.3836 34.0144 10.1902 33.0032 8.62951C31.992 7.16066 30.7049 6.42623 28.9582 6.42623H25.6487C25.3729 4.77377 24.2698 1.28525 19.949 0.27541C19.0297 0.0918032 17.7427 0 17.4669 0C7.90606 0 6.43516 4.59016 6.43516 7.34426V11.9344C6.43516 12.577 6.71096 13.3115 7.26254 13.8623C6.80289 14.4131 6.43516 15.3311 6.43516 16.5246C6.43516 18.8197 7.99799 19.8295 9.37695 20.1049C9.83661 21.482 10.4801 22.4918 11.1236 23.318L7.7222 26.7148C6.98675 27.541 7.90606 28.3672 7.90606 28.3672L3.95303 32.3148C3.58531 32.7738 0 36.4459 0 39.4754C0 39.659 -8.9407e-08 39.7508 0.0919308 39.8426L4.68848 49.0229C4.78041 49.2984 5.0562 49.3902 5.24006 49.482C5.33199 49.482 6.15937 49.7574 7.35447 49.7574C7.35447 49.8492 7.26254 54.9902 7.26254 54.9902C7.26254 55.541 7.63026 55.9082 8.18185 55.9082C8.73343 55.9082 9.10116 55.541 9.10116 54.9902V52.4197C10.4801 54.0721 12.6865 55.9082 15.5363 55.9082C18.3862 55.9082 23.6262 54.0721 28.2228 52.4197C29.0502 52.1443 29.7856 51.8689 30.5211 51.5934C30.7049 51.5016 30.8888 51.5016 31.1646 51.4098V55.082C31.1646 55.6328 31.5323 56 32.0839 56C32.6355 56 33.0032 55.6328 33.0032 55.082V50.9508C34.658 50.5836 36.2208 50.4 37.5997 50.4918H44.0349C45.5977 50.4918 47.7121 49.941 48.3557 48.2885C48.5395 47.8295 48.6314 47.3705 48.6314 46.8197H55.0666C55.6182 46.8197 55.9859 46.4525 55.9859 45.9016V21.1148C56.0779 20.5639 55.7101 20.1967 55.1585 20.1967ZM45.0461 22.0328V26.9902L42.6559 25.7967C42.564 25.7049 42.4721 25.7049 42.2882 25.7049C42.1044 25.7049 42.0124 25.7049 41.9205 25.7967L39.5303 26.9902V22.0328H45.0461ZM18.2023 27.082C18.1104 26.8984 17.6507 26.6229 17.6507 26.6229C18.7539 26.6229 19.6732 26.4393 20.5925 26.1639L20.2248 27.2656L19.3055 29.6525C19.3055 29.6525 18.2942 27.082 18.2023 27.082ZM22.7069 25.7967L24.6375 27.7246L23.7182 29.4689L22.1553 27.3574L22.7069 25.7967ZM24.3617 8.26229C23.5343 8.90492 22.7989 9.73115 22.2473 10.4656C20.6845 12.7607 19.3055 12.8525 19.3055 12.8525H14.4332C14.8009 12.4852 15.1686 12.0262 15.4444 11.5672C16.5476 9.91475 18.57 8.26229 20.2248 8.26229H24.3617ZM31.4404 9.73115C31.9 10.3738 31.992 10.9246 31.7162 11.2918C31.3484 12.0262 29.7856 12.8525 26.66 12.8525H26.568C26.3842 11.2 26.1084 10.0066 25.9245 9.36393C26.9358 8.72131 27.947 8.26229 28.9582 8.26229C29.9695 8.26229 30.7969 8.72131 31.4404 9.73115ZM8.27378 7.34426C8.27378 4.03934 10.9398 2.66229 13.9735 2.11148C12.4107 3.76393 11.951 5.87541 11.951 7.34426C11.951 7.89508 12.3187 8.26229 12.8703 8.26229C13.33 8.26229 13.7896 7.89508 13.7896 7.34426C13.7896 6.79344 13.9735 2.38689 18.4781 1.92787C22.4311 2.29508 23.5343 5.04918 23.8101 6.42623H20.2248C17.7427 6.42623 15.2605 8.4459 13.9735 10.4656C12.4107 12.7607 11.0317 12.8525 11.0317 12.8525H9.19309C8.45764 12.8525 8.27378 12.3934 8.27378 11.9344V7.34426ZM10.1124 18.3607C9.83661 18.3607 8.27378 18.2689 8.27378 16.5246C8.27378 14.8721 9.00923 14.6885 9.19309 14.6885H19.3055C19.5813 14.6885 21.6957 14.5967 23.7182 11.5672C23.902 11.2918 24.0859 11.0164 24.3617 10.741C24.5456 11.5672 24.8213 12.9443 24.8213 14.7803C24.8213 14.8721 25.1891 19.9213 22.5231 22.859C21.328 24.1443 19.5813 24.7869 17.4669 24.7869C17.3749 24.7869 12.5945 24.6951 11.0317 19.0033C10.8478 18.6361 10.4801 18.3607 10.1124 18.3607ZM12.0429 25.0623L16.0879 27.7246L13.6058 30.8459L9.56081 27.541L12.0429 25.0623ZM1.83862 39.2918C2.02248 37.3639 4.32075 34.6098 5.24006 33.6918L9.28502 29.6525L13.1461 32.8656C13.33 33.0492 13.5138 33.0492 13.6977 33.0492H13.7896C14.0654 33.0492 14.2493 32.8656 14.4332 32.682L17.0991 29.2852L18.3862 32.4066C18.57 32.7738 18.8458 32.9574 19.2136 32.9574C19.5813 32.9574 19.949 32.7738 20.0409 32.4066L21.236 29.377L22.9827 31.7639C23.1666 32.0393 23.4424 32.1311 23.8101 32.1311C24.0859 32.1311 24.3617 31.9475 24.5456 31.6721L26.0164 28.6426L28.3147 29.1934V43.7902C26.9358 44.2492 25.281 44.8 23.5343 45.3508C22.1553 45.8098 20.7764 46.2689 19.4894 46.7279C17.9265 47.2787 16.0879 46.6361 15.2605 45.1672L11.6752 39.0164C11.3994 38.5574 10.8478 38.4656 10.3882 38.741C9.92854 39.0164 9.83661 39.5672 10.1124 40.0262L12.6865 44.2492C11.2156 48.5639 7.26254 48.1967 6.06744 47.9213L1.83862 39.2918ZM46.7009 47.5541C46.4251 48.2885 45.1381 48.6557 44.1268 48.6557H37.7836C34.7499 48.4721 31.6242 49.3902 30.0614 49.941C29.326 50.2164 28.4986 50.4918 27.7631 50.7672C23.4424 52.2361 18.2023 54.1639 15.6283 54.1639C12.4107 54.1639 10.1124 50.859 9.37695 49.6656C10.9398 49.2984 12.6865 48.4721 13.9735 46.2689C14.9847 47.8295 16.7314 48.7475 18.57 48.7475C19.1216 48.7475 19.6732 48.6557 20.2248 48.4721C21.4199 48.1049 22.7989 47.6459 24.2698 47.0951C28.3147 45.718 33.279 44.0656 34.566 44.0656H41.0012C41.277 44.0656 41.8286 44.2492 41.9205 44.9836H39.5303C38.9787 44.9836 38.611 45.3508 38.611 45.9016C38.611 46.4525 38.9787 46.8197 39.5303 46.8197C39.5303 46.8197 46.517 46.9115 46.8848 46.9115C46.8848 47.0951 46.7928 47.3705 46.7009 47.5541ZM54.2392 44.9836H43.7591C43.6672 42.9639 42.1044 42.2295 41.0012 42.2295H34.566C33.7386 42.2295 32.3597 42.5967 30.3372 43.1475V22.0328H37.6917V28.459C37.6917 28.7344 37.8755 29.1016 38.1513 29.2852C38.4271 29.4689 38.7948 29.4689 39.0706 29.2852L42.3801 27.6328L45.6897 29.2852C45.6897 29.377 45.7816 29.377 45.9655 29.377C46.1493 29.377 46.3332 29.377 46.4251 29.2852C46.7009 29.1016 46.8848 28.8262 46.8848 28.459V22.0328H54.2392V44.9836Z" fill="white"/>
</svg>
