<svg width="52" height="77" viewBox="0 0 52 77" fill="none" xmlns="http://www.w3.org/2000/svg">
<path d="M45.1926 76.7385H1.02188C0.75086 76.7385 0.490941 76.6239 0.299302 76.4201C0.107662 76.2162 0 75.9397 0 75.6514V67.5625C0 67.2742 0.107662 66.9977 0.299302 66.7938C0.490941 66.59 0.75086 66.4754 1.02188 66.4754H45.1926C45.4636 66.4754 45.7235 66.59 45.9152 66.7938C46.1068 66.9977 46.2145 67.2742 46.2145 67.5625V75.6514C46.2145 75.9397 46.1068 76.2162 45.9152 76.4201C45.7235 76.6239 45.4636 76.7385 45.1926 76.7385ZM2.04376 74.5643H44.1707V68.6496H2.04376V74.5643ZM25.7003 41.6032C25.5239 41.6036 25.3506 41.5549 25.1975 41.4619L12.0602 33.5448C11.8244 33.4026 11.6514 33.1667 11.5791 32.8888C11.5069 32.611 11.5414 32.3139 11.675 32.0631L23.8128 9.2944C23.9465 9.04357 24.1683 8.85949 24.4295 8.78263C24.6907 8.70577 24.9699 8.74244 25.2057 8.88457L38.3429 16.8017C38.4598 16.8721 38.5625 16.9663 38.6451 17.0789C38.7278 17.1916 38.7887 17.3204 38.8245 17.4581C38.8603 17.5958 38.8702 17.7397 38.8537 17.8815C38.8371 18.0233 38.7945 18.1602 38.7282 18.2845L36.1408 23.1274C36.0745 23.2515 35.9859 23.3605 35.88 23.4482C35.7741 23.5359 35.653 23.6006 35.5236 23.6385C35.3942 23.6764 35.2591 23.6868 35.1259 23.6691C34.9927 23.6515 34.8641 23.6061 34.7475 23.5356C34.6308 23.4651 34.5283 23.3708 34.4459 23.2581C34.3634 23.1455 34.3027 23.0166 34.267 22.879C34.2314 22.7414 34.2216 22.5976 34.2382 22.4559C34.2548 22.3143 34.2974 22.1775 34.3637 22.0534L36.4453 18.1562L25.0871 11.3077L13.9568 32.1892L25.316 39.0378L30.079 30.0999C30.2127 29.849 30.4347 29.665 30.696 29.5882C30.9573 29.5115 31.2365 29.5483 31.4723 29.6906C31.7081 29.8329 31.8811 30.0689 31.9533 30.3469C32.0254 30.6249 31.9908 30.922 31.8571 31.1728L26.5903 41.0554C26.5007 41.2222 26.3711 41.3608 26.2148 41.4571C26.0584 41.5533 25.8809 41.6038 25.7003 41.6032Z" fill="white"/>
<path d="M19.8612 47.218C19.6847 47.218 19.5111 47.1693 19.3575 47.0767L10.5315 41.75C10.2957 41.6079 10.1227 41.3719 10.0504 41.094C9.97816 40.8162 10.0126 40.5192 10.1462 40.2683L13.8301 33.3643C13.9637 33.1135 14.1855 32.9294 14.4467 32.8526C14.7079 32.7757 14.9871 32.8124 15.2229 32.9545L24.0499 38.2812C24.2857 38.4233 24.4587 38.6593 24.531 38.9371C24.6032 39.215 24.5688 39.512 24.4352 39.7628L20.7503 46.6744C20.6175 46.9246 20.3971 47.1087 20.1371 47.1865C20.047 47.2108 19.9541 47.2215 19.8612 47.218ZM12.4281 40.3977L19.4791 44.6492L22.1543 39.6281L15.1034 35.3776L12.4281 40.3977ZM35.2988 17.3072C35.1222 17.3072 34.9486 17.2585 34.795 17.1659L26.7334 12.3034C26.4978 12.1611 26.3249 11.9251 26.2529 11.6472C26.1808 11.3694 26.2155 11.0725 26.3491 10.8218L29.3228 5.24182C29.4566 4.99118 29.6785 4.80732 29.9397 4.73067C30.2009 4.65403 30.48 4.69086 30.7156 4.83308L38.7731 9.69555C39.0089 9.83769 39.182 10.0736 39.2542 10.3515C39.3265 10.6294 39.292 10.9264 39.1584 11.1772L36.1847 16.7561C36.0959 16.9229 35.9671 17.0618 35.8115 17.1586C35.6559 17.2553 35.479 17.3066 35.2988 17.3072ZM28.631 10.9479L34.9145 14.7385L36.8796 11.05L30.5981 7.26051L28.631 10.9479Z" fill="white"/>
<path d="M39.795 12.648C39.6188 12.6478 39.4456 12.5992 39.2922 12.5067L28.1834 5.80492C27.9476 5.66278 27.7746 5.42683 27.7023 5.14896C27.6301 4.87109 27.6645 4.57408 27.7982 4.32325L29.8092 0.55111C29.9428 0.300286 30.1646 0.116199 30.4258 0.0393424C30.687 -0.0375143 30.9662 -0.000844985 31.202 0.141284L42.3119 6.83982C42.5477 6.98196 42.7207 7.21791 42.793 7.49578C42.8652 7.77365 42.8307 8.07066 42.6971 8.32149L40.6871 12.0936C40.5981 12.262 40.4686 12.4022 40.3118 12.4996C40.155 12.597 39.9766 12.6483 39.795 12.648ZM30.08 4.44826L39.4128 10.0782L40.4153 8.19648L31.0825 2.56871L30.08 4.44826ZM37.1085 63.3675C36.8962 63.3673 36.6892 63.2967 36.5163 63.1656C36.3435 63.0345 36.2133 62.8494 36.1438 62.6359L34.5221 57.6539C34.4756 57.5087 34.4585 57.3548 34.4719 57.2022C34.4853 57.0495 34.5289 56.9016 34.5998 56.7681C34.6707 56.6347 34.7674 56.5187 34.8835 56.4278C34.9995 56.3369 35.1323 56.2731 35.2732 56.2407C37.9653 55.6232 40.3859 54.0657 42.15 51.8161C43.9141 49.5664 44.9203 46.7537 45.0085 43.8256C45.0967 40.8975 44.2619 38.0221 42.6369 35.6568C41.0119 33.2916 38.69 31.5724 36.0406 30.7728C35.872 30.722 35.7186 30.6259 35.5949 30.4938C35.4713 30.3617 35.3817 30.198 35.3347 30.0184C35.2877 29.8389 35.2849 29.6494 35.3266 29.4684C35.3682 29.2873 35.453 29.1207 35.5726 28.9845C36.0316 28.4534 36.325 27.7844 36.4126 27.069C36.5002 26.3536 36.3778 25.6269 36.0621 24.9885C35.9705 24.8037 35.9309 24.5947 35.948 24.3865C35.9652 24.1784 36.0384 23.9799 36.1588 23.8149C36.2792 23.6499 36.4418 23.5252 36.6271 23.4559C36.8124 23.3866 37.0125 23.3756 37.2035 23.4242C41.4071 24.5008 45.1497 27.0465 47.8322 30.6538C50.5148 34.2611 51.9823 38.7214 51.9998 43.3209C52.0174 47.9204 50.584 52.3932 47.929 56.0236C45.274 59.6539 41.551 62.2318 37.3558 63.3447C37.2745 63.363 37.1915 63.3706 37.1085 63.3675ZM36.8152 58.0517L37.7615 60.9597C41.2296 59.821 44.2726 57.5495 46.4587 54.4673C48.6448 51.3851 49.8629 47.6488 49.9403 43.7886C50.0176 39.9284 48.9503 36.1403 46.8897 32.9618C44.829 29.7833 41.8798 27.3758 38.4604 26.081C38.4758 26.2571 38.4839 26.4364 38.4839 26.6158C38.4855 27.4974 38.2937 28.3673 37.9239 29.1563C40.7098 30.318 43.0858 32.3749 44.7211 35.0405C46.3565 37.7062 47.1698 40.848 47.0478 44.0285C46.9258 47.209 45.8746 50.2698 44.0405 52.7849C42.2064 55.3 39.6808 57.1441 36.8152 58.0604V58.0517Z" fill="white"/>
<path d="M38.8222 68.6529H19.713C19.5501 68.6529 19.3896 68.6114 19.2448 68.532C19.1 68.4526 18.9752 68.3375 18.8807 68.1964C18.7862 68.0552 18.7248 67.8921 18.7016 67.7206C18.6784 67.549 18.6941 67.3741 18.7474 67.2103L22.7378 54.9264C22.8073 54.7128 22.9376 54.5275 23.1107 54.3964C23.2838 54.2653 23.491 54.1948 23.7035 54.1948H34.8328C35.0452 54.1948 35.2524 54.2653 35.4255 54.3964C35.5986 54.5275 35.729 54.7128 35.7984 54.9264L39.7889 67.2103C39.8422 67.3742 39.8578 67.5492 39.8346 67.7208C39.8114 67.8924 39.7499 68.0556 39.6553 68.1968C39.5606 68.338 39.4357 68.4531 39.2907 68.5324C39.1458 68.6117 38.9852 68.653 38.8222 68.6529ZM21.1437 66.4787H37.3915L34.1072 56.369H24.43L21.1437 66.4787Z" fill="white"/>
<path d="M22.14 61.1814H10.1606C9.88953 61.1814 9.62961 61.0669 9.43797 60.863C9.24633 60.6591 9.13867 60.3826 9.13867 60.0943V55.2786C9.13867 54.9903 9.24633 54.7138 9.43797 54.5099C9.62961 54.3061 9.88953 54.1915 10.1606 54.1915H23.7025C23.8653 54.1916 24.0257 54.233 24.1704 54.3124C24.315 54.3917 24.4398 54.5067 24.5343 54.6477C24.6288 54.7887 24.6902 54.9517 24.7135 55.1231C24.7368 55.2945 24.7212 55.4693 24.6682 55.633L23.1057 60.4498C23.0362 60.6634 22.9059 60.8487 22.7328 60.9798C22.5597 61.1109 22.3525 61.1814 22.14 61.1814ZM11.1824 59.0073H21.4114L22.2688 56.3657H11.1824V59.0073ZM33.1119 32.3262C32.0499 32.3262 31.0116 31.9911 30.1285 31.3634C29.2455 30.7357 28.5572 29.8436 28.1507 28.7997C27.7443 27.7559 27.638 26.6073 27.8452 25.4992C28.0524 24.391 28.5638 23.3732 29.3148 22.5742C30.0658 21.7753 31.0226 21.2313 32.0643 21.0108C33.106 20.7904 34.1857 20.9035 35.1669 21.3359C36.1482 21.7683 36.9869 22.5005 37.5769 23.4399C38.167 24.3793 38.4819 25.4838 38.4819 26.6136C38.4806 28.1282 37.9144 29.5804 36.9076 30.6514C35.9008 31.7224 34.5357 32.3247 33.1119 32.3262ZM33.1119 23.0763C32.454 23.0763 31.8109 23.2838 31.2639 23.6727C30.7169 24.0616 30.2905 24.6142 30.0388 25.2609C29.7871 25.9075 29.7213 26.619 29.8497 27.3054C29.9781 27.9918 30.295 28.6223 30.7603 29.1171C31.2256 29.6119 31.8184 29.9489 32.4637 30.0853C33.1089 30.2217 33.7778 30.1515 34.3855 29.8835C34.9933 29.6155 35.5127 29.1618 35.8781 28.5798C36.2435 27.9977 36.4384 27.3135 36.4382 26.6136C36.4371 25.6756 36.0863 24.7764 35.4627 24.1132C34.8391 23.4501 33.9937 23.0772 33.1119 23.0763Z" fill="white"/>
</svg>
