<svg width="21" height="27" viewBox="0 0 21 27" fill="none" xmlns="http://www.w3.org/2000/svg">
<path d="M16.8742 17.6149C16.5538 17.7121 16.0833 17.723 15.579 17.6479C15.0377 17.5673 14.4856 17.3974 13.9429 17.147C14.9106 17.0024 15.6614 17.047 16.3035 17.2806C16.4556 17.336 16.7055 17.4839 16.8742 17.6149ZM11.4748 16.7035C11.4354 16.7145 11.3966 16.7249 11.3581 16.7359C11.0977 16.8086 10.8443 16.8797 10.6002 16.9428L10.2709 17.0286C9.60868 17.2006 8.93158 17.3764 8.26282 17.5857C8.51696 16.9564 8.7531 16.3201 8.9843 15.6981C9.15548 15.2376 9.33028 14.7672 9.51106 14.3028C9.60277 14.4584 9.69848 14.614 9.79808 14.7699C10.2518 15.4795 10.8222 16.1355 11.4748 16.7035ZM9.79025 9.60701C9.83318 10.3835 9.67002 11.1305 9.43066 11.8472C9.13583 10.9611 8.99843 9.98251 9.36703 9.19249C9.46156 8.98999 9.539 8.88172 9.58922 8.82522C9.6668 8.94821 9.76882 9.22334 9.79025 9.60701ZM6.33291 19.4436C6.16725 19.7479 5.99816 20.0328 5.82485 20.3018C5.40662 20.949 4.72262 21.6419 4.37123 21.6419C4.33665 21.6419 4.29481 21.6362 4.23366 21.5699C4.19431 21.5275 4.188 21.4971 4.18991 21.4557C4.20176 21.2177 4.50879 20.794 4.95358 20.4011C5.3573 20.0446 5.81361 19.7277 6.33291 19.4436ZM17.9931 17.6486C17.9393 16.856 16.64 16.3476 16.6271 16.3428C16.1248 16.16 15.5791 16.0711 14.959 16.0711C14.2951 16.0711 13.5793 16.1698 12.6601 16.3903C11.8422 15.7949 11.1356 15.0496 10.6077 14.2245C10.3746 13.8599 10.165 13.496 9.98234 13.1406C10.4283 12.0456 10.8299 10.8684 10.7569 9.54983C10.6981 8.49258 10.2338 7.78241 9.60237 7.78241C9.16922 7.78241 8.79629 8.11181 8.49303 8.76238C7.95207 9.92162 8.09426 11.4049 8.91547 13.1749C8.61971 13.8882 8.34492 14.6277 8.07895 15.3435C7.74802 16.2336 7.40703 17.152 7.02272 18.0255C5.94497 18.4634 5.05956 18.9944 4.32167 19.6463C3.83828 20.0727 3.25553 20.7244 3.22226 21.4047C3.20603 21.7251 3.31302 22.019 3.53045 22.2544C3.76145 22.5044 4.05166 22.636 4.37076 22.6364C5.42468 22.6364 6.43902 21.1496 6.63145 20.8514C7.01871 20.252 7.3812 19.5834 7.73638 18.8122C8.63095 18.4802 9.58429 18.2324 10.5083 17.9929L10.8392 17.9066C11.088 17.8417 11.3465 17.7698 11.6117 17.6953C11.8924 17.6174 12.1811 17.5366 12.4746 17.4599C13.4234 18.0795 14.4437 18.4836 15.4388 18.6319C16.2769 18.7571 17.0213 18.6845 17.5252 18.4147C17.9786 18.1723 18.0036 17.7981 17.9931 17.6486ZM20.0342 24.4639C20.0342 25.9154 18.7882 26.0049 18.5368 26.0078H2.46182C1.05329 26.0078 0.968474 24.7197 0.965786 24.4639L0.965595 2.53558C0.965595 1.08263 2.21383 0.994545 2.46163 0.991629H13.3206L13.3264 0.997515V5.34867C13.3264 6.2219 13.8405 7.87516 15.7877 7.87516H19.9979L20.034 7.91222L20.0342 24.4639ZM19.0361 6.88338H15.7884C14.3803 6.88338 14.2951 5.60229 14.2932 5.34881V1.99332L19.0361 6.88338ZM21 24.4639V7.5031L14.2932 0.58794V0.555766H14.2611L13.7224 0H2.46185C1.61029 0 0 0.530102 0 2.53605V24.4644C0 25.3413 0.514704 27 2.46185 27H18.5384C19.3897 26.9998 21 26.4697 21 24.4639Z" fill="#9C9C9C"/>
</svg>
