<svg width="20" height="30" viewBox="0 0 20 30" fill="none" xmlns="http://www.w3.org/2000/svg">
<path d="M9.65563 26.9254C9.69496 26.9783 9.74595 27.0214 9.80464 27.0515C9.86334 27.0815 9.92816 27.0977 9.9941 27.0986H9.99973C10.0647 27.0986 10.1288 27.0838 10.1872 27.0554C10.2456 27.0269 10.2967 26.9856 10.3367 26.9344C10.6911 26.4824 19.0127 15.7868 19.0127 9.01297C19.0127 6.62258 18.0631 4.3301 16.3729 2.63984C14.6826 0.949578 12.3901 0 9.99973 0C7.60934 0 5.31685 0.949578 3.62659 2.63984C1.93633 4.3301 0.986755 6.62258 0.986755 9.01297C0.986755 11.6072 2.45053 15.4165 5.33795 20.3346C7.47109 23.9679 9.63409 26.8962 9.65563 26.9254ZM9.99973 0.856583C12.1622 0.85898 14.2355 1.71911 15.7646 3.24827C17.2937 4.77742 18.1538 6.8507 18.1561 9.01322C18.1561 14.7325 11.603 23.8245 10.0085 25.9515C8.4334 23.7423 1.84334 14.1987 1.84334 9.01322C1.84567 6.8507 2.70574 4.77742 4.23485 3.24827C5.76396 1.71911 7.83721 0.85898 9.99973 0.856583Z" fill="black"/>
<path d="M15.1809 9.0132C15.1809 7.98847 14.8771 6.98673 14.3078 6.13467C13.7385 5.28261 12.9294 4.61849 11.9827 4.22631C11.0359 3.83413 9.99419 3.73149 8.98914 3.93137C7.98409 4.13126 7.06088 4.62469 6.33626 5.34927C5.61165 6.07386 5.11817 6.99704 4.91824 8.00208C4.7183 9.00713 4.82089 10.0489 5.21303 10.9956C5.60517 11.9424 6.26925 12.7516 7.12128 13.3209C7.97331 13.8902 8.97504 14.1941 9.99977 14.1941C11.3734 14.1926 12.6903 13.6463 13.6616 12.675C14.633 11.7037 15.1793 10.3868 15.1809 9.0132ZM9.99977 13.3375C9.14445 13.3375 8.30834 13.0838 7.59717 12.6086C6.886 12.1335 6.33172 11.458 6.00441 10.6678C5.67711 9.87761 5.59148 9.00808 5.75836 8.16919C5.92525 7.33031 6.33714 6.55976 6.94196 5.95497C7.54678 5.35019 8.31736 4.93833 9.15625 4.7715C9.99514 4.60466 10.8647 4.69034 11.6549 5.01769C12.4451 5.34504 13.1204 5.89936 13.5956 6.61056C14.0708 7.32175 14.3243 8.15788 14.3243 9.0132C14.3229 10.1597 13.8669 11.2588 13.0562 12.0695C12.2454 12.8802 11.1463 13.3362 9.99977 13.3375Z" fill="black"/>
<path d="M14.3669 24.1786C14.2555 24.1677 14.1443 24.2007 14.0569 24.2706C13.9696 24.3406 13.9131 24.4419 13.8995 24.553C13.8859 24.664 13.9162 24.776 13.9841 24.865C14.0519 24.954 14.1519 25.0129 14.2626 25.0291C17.9501 25.4816 19.1432 26.3353 19.1432 26.6777C19.1432 27.3206 15.9161 28.5719 9.99976 28.5719C4.08346 28.5719 0.856338 27.3196 0.856338 26.6777C0.856338 26.3106 2.02643 25.5595 5.16691 25.1052C5.27711 25.0865 5.37563 25.0254 5.44144 24.935C5.50725 24.8447 5.53515 24.7322 5.51919 24.6215C5.50322 24.5109 5.44466 24.4109 5.35598 24.3428C5.26731 24.2748 5.15555 24.244 5.04454 24.2572C2.744 24.5903 0 25.2802 0 26.6777C0 28.696 5.98018 29.4285 10 29.4285C14.0198 29.4285 20 28.696 20 26.6777C19.9998 25.105 16.4706 24.4371 14.3669 24.1786Z" fill="black"/>
</svg>
