<svg width="53" height="58" viewBox="0 0 53 58" fill="none" xmlns="http://www.w3.org/2000/svg">
<path d="M32.6769 36.5499C33.3329 36.5499 33.9464 36.2669 34.4044 35.7531L38.4737 31.1874C39.4025 30.1452 39.3832 28.4705 38.4308 27.454C37.4783 26.4378 35.9477 26.4588 35.0189 27.5009L32.6317 30.1791L32.2135 29.7341C31.2598 28.7196 29.7292 28.7428 28.8016 29.7865C27.8743 30.8301 27.8957 32.5049 28.8495 33.5198L30.995 35.8026C31.4446 36.283 32.0485 36.5513 32.6769 36.5499ZM29.9173 30.9734C30.2469 30.6025 30.7906 30.5948 31.129 30.955L32.104 31.9925C32.2518 32.1497 32.4506 32.2363 32.6567 32.2334C32.8628 32.2304 33.0594 32.138 33.2034 31.9765L36.1328 28.6898C36.4629 28.3195 37.0064 28.3123 37.3445 28.673C37.6828 29.0341 37.6895 29.6288 37.3598 29.9989L33.2905 34.5644C32.976 34.9325 32.4032 34.9403 32.0797 34.5821L29.9342 32.2993C29.5956 31.9388 29.5879 31.344 29.9173 30.9734Z" fill="#FFFCFC"/>
<path d="M26.6631 37.1293C26.5373 36.9539 26.3536 36.8394 26.1515 36.8106C25.9494 36.7818 25.7451 36.8409 25.5824 36.9752C25.4197 37.1095 25.3116 37.3083 25.2815 37.5289C25.2513 37.7494 25.3013 37.9742 25.4209 38.1547C25.7063 38.5681 26.0175 38.9594 26.3523 39.3257C28.2651 41.4188 30.8084 42.5714 33.5136 42.5714C36.2188 42.5714 38.7619 41.4188 40.6748 39.3257C42.5877 37.2327 43.6411 34.4499 43.6411 31.49C43.6411 28.5299 42.5876 25.7472 40.6748 23.6542C36.726 19.3336 30.3011 19.3337 26.3523 23.6542C23.6602 26.5998 22.7075 30.8969 23.8661 34.8686C23.929 35.0836 24.0672 35.2625 24.2506 35.3661C24.4339 35.4696 24.6473 35.4892 24.8438 35.4207C24.9412 35.3867 25.0314 35.3321 25.1095 35.2599C25.1875 35.1878 25.2518 35.0995 25.2986 35.0001C25.3455 34.9008 25.374 34.7923 25.3825 34.6809C25.3911 34.5695 25.3795 34.4574 25.3484 34.3509C24.3676 30.9889 25.1739 27.3515 27.4526 24.8582C30.7945 21.2013 36.2326 21.2013 39.5745 24.8582C41.1935 26.6296 42.0852 28.9849 42.0852 31.4901C42.0852 33.9953 41.1935 36.3505 39.5745 38.122C37.9556 39.8934 35.8031 40.8691 33.5136 40.8691C31.2241 40.8691 29.0715 39.8935 27.4525 38.122C27.1688 37.8114 26.9051 37.4797 26.6631 37.1293Z" fill="#FFFCFC"/>
<path d="M51.9297 47.0423L47.0215 41.6718C46.8756 41.5121 46.6777 41.4224 46.4713 41.4224C46.265 41.4224 46.0671 41.5121 45.9211 41.6718L45.8911 41.7046L44.0023 39.6379C45.2805 37.4821 46.0296 35.0023 46.1773 32.4376C46.1903 32.2122 46.1209 31.9905 45.9845 31.8211C45.848 31.6517 45.6557 31.5486 45.4498 31.5344C45.0214 31.5058 44.6516 31.8613 44.6244 32.3304C44.4386 35.5553 43.1833 38.5951 41.0943 40.8788C38.7317 43.4641 35.629 44.7582 32.5254 44.7615C32.5215 44.7614 32.5176 44.7608 32.5136 44.7608H32.4518C29.365 44.7438 26.2829 43.4502 23.9329 40.8788C21.6408 38.371 20.3786 35.0366 20.3786 31.4898C20.3786 27.9431 21.6408 24.6087 23.9329 22.1009C28.6643 16.9237 36.3629 16.9237 41.0943 22.1009C42.8565 24.0292 44.0194 26.4614 44.4574 29.135C44.5333 29.5977 44.9378 29.9052 45.3605 29.8227C45.461 29.803 45.5571 29.7618 45.6431 29.7014C45.7291 29.6411 45.8034 29.5628 45.8618 29.4711C45.9201 29.3793 45.9614 29.2759 45.9833 29.1667C46.0051 29.0574 46.007 28.9446 45.989 28.8345C45.4946 25.8171 44.1826 23.0723 42.1946 20.8969C41.2353 19.8459 40.1381 18.9574 38.9391 18.2608V11.3998C38.9381 11.1742 38.8563 10.9581 38.7113 10.7978L29.0709 0.249331C28.9243 0.0906672 28.7268 0.00116074 28.5206 0L2.33407 0C1.04716 0 0.000103515 1.14561 0.000103515 2.55381V9.70897C0.000103515 9.82078 0.0202284 9.93149 0.059329 10.0348C0.0984295 10.1381 0.15574 10.2319 0.227987 10.311C0.300235 10.39 0.386004 10.4527 0.480397 10.4955C0.574791 10.5383 0.675959 10.5603 0.778126 10.5603C0.880292 10.5603 0.981461 10.5383 1.07585 10.4955C1.17025 10.4527 1.25602 10.39 1.32826 10.311C1.40051 10.2319 1.45782 10.1381 1.49692 10.0348C1.53602 9.93149 1.55615 9.82078 1.55615 9.70897V2.55381C1.55615 2.08437 1.9051 1.7025 2.33417 1.7025H27.7429V9.6973C27.7429 11.1055 28.7899 12.2511 30.0768 12.2511H37.3834V17.4898C35.8654 16.8604 34.2651 16.5371 32.6621 16.5182C32.6545 16.517 32.647 16.5153 32.639 16.5153H15.2692C15.1659 16.5135 15.0634 16.5342 14.9675 16.5761C14.8717 16.6181 14.7844 16.6805 14.7108 16.7597C14.6372 16.839 14.5788 16.9334 14.5389 17.0376C14.499 17.1418 14.4784 17.2537 14.4784 17.3667C14.4784 17.4796 14.499 17.5915 14.5389 17.6957C14.5788 17.7999 14.6372 17.8944 14.7108 17.9736C14.7844 18.0528 14.8717 18.1152 14.9675 18.1572C15.0634 18.1991 15.1659 18.2198 15.2692 18.218H26.1617C25.0278 18.8674 23.9831 19.6882 23.0584 20.6563H15.2692C15.1659 20.6545 15.0634 20.6751 14.9675 20.7171C14.8717 20.7591 14.7844 20.8215 14.7108 20.9007C14.6372 20.9799 14.5788 21.0744 14.5389 21.1786C14.499 21.2828 14.4784 21.3947 14.4784 21.5076C14.4784 21.6206 14.499 21.7325 14.5389 21.8367C14.5788 21.9409 14.6372 22.0353 14.7108 22.1146C14.7844 22.1938 14.8717 22.2562 14.9675 22.2982C15.0634 22.3401 15.1659 22.3608 15.2692 22.3589H21.6581C20.3882 24.1591 19.5203 26.2324 19.1049 28.4455H15.2693C15.166 28.4437 15.0635 28.4643 14.9676 28.5063C14.8718 28.5483 14.7845 28.6107 14.7109 28.6899C14.6373 28.7691 14.5789 28.8636 14.539 28.9678C14.4991 29.072 14.4785 29.1839 14.4785 29.2968C14.4785 29.4098 14.4991 29.5217 14.539 29.6259C14.5789 29.7301 14.6373 29.8245 14.7109 29.9038C14.7845 29.983 14.8718 30.0454 14.9676 30.0874C15.0635 30.1293 15.166 30.15 15.2693 30.1481H18.8777C18.8414 30.5944 18.8232 31.0421 18.8229 31.4901C18.8229 31.8598 18.8353 32.2275 18.8594 32.5926H15.2694C15.1661 32.5908 15.0636 32.6115 14.9678 32.6534C14.8719 32.6954 14.7846 32.7578 14.711 32.837C14.6374 32.9162 14.579 33.0107 14.5391 33.1149C14.4992 33.2191 14.4786 33.331 14.4786 33.4439C14.4786 33.5569 14.4992 33.6688 14.5391 33.773C14.579 33.8772 14.6374 33.9716 14.711 34.0509C14.7846 34.1301 14.8719 34.1925 14.9678 34.2345C15.0636 34.2764 15.1661 34.2971 15.2694 34.2952H19.0622C19.4589 36.5995 20.3436 38.7586 21.6605 40.6243H15.2694C15.1672 40.6243 15.066 40.6463 14.9717 40.6891C14.8773 40.7318 14.7915 40.7945 14.7193 40.8736C14.6471 40.9526 14.5898 41.0465 14.5507 41.1498C14.5116 41.2531 14.4914 41.3638 14.4914 41.4756C14.4914 41.5874 14.5116 41.6981 14.5507 41.8013C14.5898 41.9046 14.6471 41.9985 14.7193 42.0775C14.7915 42.1566 14.8773 42.2193 14.9717 42.2621C15.066 42.3048 15.1672 42.3269 15.2694 42.3269H23.0615C23.9849 43.2932 25.0279 44.1127 26.1598 44.7613H15.2689C15.1657 44.7594 15.0632 44.7801 14.9673 44.822C14.8715 44.864 14.7842 44.9264 14.7106 45.0056C14.637 45.0849 14.5786 45.1793 14.5387 45.2836C14.4988 45.3878 14.4782 45.4996 14.4782 45.6126C14.4782 45.7256 14.4988 45.8374 14.5387 45.9416C14.5786 46.0458 14.637 46.1403 14.7106 46.2195C14.7842 46.2987 14.8715 46.3612 14.9673 46.4031C15.0632 46.4451 15.1657 46.4657 15.2689 46.4639H32.5136C34.1772 46.4642 35.8271 46.1343 37.3832 45.4901V55.4465C37.3832 55.9158 37.0342 56.2978 36.6051 56.2978H2.33407C1.9051 56.2978 1.55604 55.9159 1.55604 55.4465V13.1145C1.55604 12.6444 1.20772 12.2632 0.778022 12.2632C0.34833 12.2632 0 12.6443 0 13.1145V55.4465C0.000103515 56.8542 1.04716 57.9999 2.33407 57.9999H36.6052C37.8922 57.9999 38.9392 56.8542 38.9392 55.446V44.7187C39.2882 44.5159 39.629 44.2965 39.9606 44.0612L41.849 46.1274C41.5222 46.4396 41.5047 47.0346 41.8189 47.3642L46.7272 52.7349C48.0964 54.2965 50.5605 54.2964 51.9296 52.7349C53.3568 51.2366 53.3567 48.5404 51.9297 47.0423ZM30.0767 10.5486C29.6478 10.5486 29.2987 10.1667 29.2987 9.6973V2.90645L36.283 10.5486H30.0767ZM41.2297 43.042C41.5649 42.7391 41.8869 42.419 42.1946 42.0827C42.5019 41.7462 42.7944 41.3939 43.0711 41.027L44.7907 42.9085L42.9492 44.9234L41.2297 43.042ZM50.8294 51.5309C50.0394 52.4321 48.6176 52.4319 47.8275 51.5309L43.4693 46.7623L46.4713 43.4775L50.8295 48.2461C51.6529 49.1108 51.653 50.6664 50.8294 51.5309Z" fill="#FFFCFC"/>
<path d="M8.06027 23.2003H11.4639C12.4234 23.2003 13.2042 22.3462 13.2042 21.2963V17.572C13.2042 16.522 12.4235 15.6679 11.4639 15.6679H8.06027C7.10078 15.6679 6.32007 16.522 6.32007 17.572V21.2963C6.32007 22.3462 7.10078 23.2003 8.06027 23.2003ZM7.87611 17.572C7.87611 17.4609 7.95882 17.3705 8.06027 17.3705H11.4639C11.5655 17.3705 11.6481 17.4609 11.6481 17.572V21.2963C11.6481 21.4074 11.5654 21.4978 11.4639 21.4978H8.06027C8.01143 21.4978 7.96461 21.4765 7.93008 21.4387C7.89555 21.401 7.87614 21.3497 7.87611 21.2963V17.572ZM6.32007 33.2323C6.32007 34.2822 7.10068 35.1364 8.06027 35.1364H11.4639C12.4234 35.1364 13.2042 34.2822 13.2042 33.2323V29.5081C13.2042 28.4582 12.4235 27.6041 11.4639 27.6041H8.06027C7.10078 27.6041 6.32007 28.4582 6.32007 29.5081V33.2323ZM7.87611 29.5081C7.87611 29.397 7.95882 29.3066 8.06027 29.3066H11.4639C11.5655 29.3066 11.6481 29.397 11.6481 29.5081V33.2323C11.6481 33.3435 11.5654 33.4339 11.4639 33.4339H8.06027C8.01143 33.4338 7.96461 33.4126 7.93008 33.3748C7.89555 33.337 7.87614 33.2858 7.87611 33.2323V29.5081ZM6.32007 45.411C6.32007 46.4608 7.10068 47.315 8.06027 47.315H11.4639C12.4234 47.315 13.2042 46.4608 13.2042 45.411V41.6867C13.2042 40.6367 12.4235 39.7826 11.4639 39.7826H8.06027C7.10078 39.7826 6.32007 40.6367 6.32007 41.6867V45.411ZM7.87611 41.6867C7.87611 41.5756 7.95882 41.4852 8.06027 41.4852H11.4639C11.5655 41.4852 11.6481 41.5756 11.6481 41.6867V45.411C11.6481 45.5221 11.5654 45.6125 11.4639 45.6125H8.06027C8.01143 45.6125 7.96461 45.5912 7.93008 45.5534C7.89555 45.5156 7.87614 45.4644 7.87611 45.411V41.6867Z" fill="#FFFCFC"/>
</svg>
