<svg width="20" height="21" viewBox="0 0 20 21" fill="none" xmlns="http://www.w3.org/2000/svg">
<path d="M4.05291 13.345C6.03304 15.712 8.41667 17.5757 11.1373 18.8944C12.1731 19.3853 13.5583 19.9677 15.1017 20.0675C15.1974 20.0717 15.2889 20.0758 15.3846 20.0758C16.4204 20.0758 17.2524 19.7181 17.9304 18.9818C17.9346 18.9776 17.9429 18.9693 17.9471 18.961C18.1883 18.6698 18.4629 18.4077 18.7499 18.129C18.9455 17.9418 19.1451 17.7463 19.3365 17.5466C20.2226 16.6231 20.2226 15.45 19.3282 14.5556L16.828 12.0555C16.4037 11.6145 15.8962 11.3816 15.3638 11.3816C14.8313 11.3816 14.3196 11.6145 13.8828 12.0513L12.3936 13.5406C12.2563 13.4615 12.1149 13.3908 11.9817 13.3243C11.8153 13.2411 11.6614 13.162 11.5241 13.0747C10.168 12.2135 8.93667 11.0904 7.75941 9.64687C7.16454 8.89393 6.76518 8.26162 6.48647 7.61683C6.8775 7.26324 7.24358 6.893 7.59717 6.53109C7.72197 6.40213 7.85092 6.27317 7.97988 6.14421C8.42915 5.69494 8.67043 5.17495 8.67043 4.64664C8.67043 4.11833 8.43331 3.59834 7.97988 3.14907L6.74022 1.90941C6.59463 1.76381 6.45735 1.62237 6.31591 1.47677C6.04136 1.1939 5.75432 0.902704 5.47145 0.640629C5.04297 0.220476 4.53962 0 4.00715 0C3.47884 0 2.97133 0.220476 2.52622 0.644789L0.970403 2.2006C0.404653 2.76635 0.084338 3.45274 0.0177792 4.24729C-0.0612595 5.24151 0.121777 6.29813 0.596009 7.57523C1.324 9.5512 2.42222 11.3857 4.05291 13.345ZM1.0328 4.33465C1.08272 3.78137 1.29488 3.31962 1.69423 2.92027L3.24172 1.37278C3.483 1.13982 3.74924 1.01918 4.00715 1.01918C4.26091 1.01918 4.51882 1.13982 4.75594 1.3811C5.03465 1.63901 5.29673 1.90941 5.5796 2.19644C5.72104 2.34204 5.86664 2.48764 6.01224 2.63739L7.25189 3.87705C7.50981 4.13497 7.64293 4.39704 7.64293 4.65496C7.64293 4.91288 7.50981 5.17495 7.25189 5.43287C7.12294 5.56182 6.99398 5.69494 6.86502 5.8239C6.47815 6.21493 6.11623 6.58517 5.71688 6.93876C5.70856 6.94708 5.7044 6.95124 5.69608 6.95956C5.35081 7.30483 5.40489 7.63347 5.48809 7.88306C5.49225 7.89554 5.49641 7.90386 5.50057 7.91634C5.82088 8.68593 6.26599 9.41808 6.9607 10.2917C8.20868 11.8308 9.52322 13.0247 10.9709 13.9441C11.1497 14.0606 11.3411 14.1521 11.52 14.2436C11.6864 14.3268 11.8403 14.4058 11.9776 14.4932C11.9942 14.5015 12.0067 14.5098 12.0233 14.5182C12.1606 14.5889 12.2937 14.6221 12.4268 14.6221C12.7596 14.6221 12.976 14.41 13.0467 14.3393L14.6025 12.7835C14.8438 12.5422 15.1058 12.4132 15.3638 12.4132C15.6799 12.4132 15.9378 12.6087 16.1001 12.7835L18.6085 15.2877C19.1077 15.7869 19.1035 16.3277 18.596 16.856C18.4213 17.0432 18.2383 17.2221 18.0427 17.4093C17.7516 17.6922 17.4479 17.9834 17.1733 18.312C16.6949 18.8278 16.125 19.0691 15.3887 19.0691C15.318 19.0691 15.2431 19.065 15.1724 19.0608C13.8079 18.9734 12.5392 18.441 11.5865 17.9875C8.99906 16.7354 6.72774 14.9591 4.8433 12.7044C3.29164 10.8366 2.2475 9.09776 1.55695 7.23412C1.12848 6.09014 0.966243 5.17079 1.0328 4.33465Z" fill="black"/>
</svg>
